<?xml version="1.0" encoding="UTF-8"?>
<svg width="706px" height="937px" viewBox="0 0 706 937" version="1.1" xmlns="http://www.w3.org/2000/svg" xmlns:xlink="http://www.w3.org/1999/xlink">
    <!-- Generator: Sketch 50.2 (55047) - http://www.bohemiancoding.com/sketch -->
    <title>logo_big_2</title>
    <desc>Created with Sketch.</desc>
    <defs></defs>
    <g id="Page-1" stroke="none" stroke-width="1" fill="none" fill-rule="evenodd" opacity="0.049999997">
        <g id="Main-page-SCCCDM-наставники" transform="translate(-276.000000, -151.000000)" fill="#037286" fill-rule="nonzero">
            <g id="logo_big_2" transform="translate(276.000000, 151.000000)">
                <path d="M594.252174,430 L512.747826,430 C506.926087,430 502,426.821839 502,422.735632 L502,358.264368 C502,354.329502 506.702174,351 512.747826,351 L594.252174,351 C600.073913,351 605,354.178161 605,358.264368 L605,422.735632 C604.776087,426.670498 600.073913,430 594.252174,430 Z" id="Shape" opacity="0.400000006"></path>
                <path d="M594.555556,572 L533.666667,572 C527.888889,572 523,566.02439 523,558.341463 L523,480.658537 C523,473.260163 527.666667,467 533.666667,467 L594.333333,467 C600.111111,467 605,472.97561 605,480.658537 L605,558.341463 C605,565.739837 600.333333,572 594.555556,572 Z" id="Shape"></path>
                <path d="M565.377049,818 L505.622951,818 C499.868852,818 495,811.98913 495,804.26087 L495,752.73913 C495,745.297101 499.647541,739 505.622951,739 L565.377049,739 C571.131148,739 576,745.01087 576,752.73913 L576,804.26087 C576,811.702899 571.131148,818 565.377049,818 Z" id="Shape"></path>
                <path d="M651,798.016575 L651,732.983425 C651,729.200737 646.323144,726 640.310044,726 L610.689956,726 C604.899563,726 600,729.055249 600,732.983425 L600,798.016575 C600,801.799263 604.676856,805 610.689956,805 L640.310044,805 C646.100437,804.854512 651,801.799263 651,798.016575 Z" id="Shape"></path>
                <path d="M706,887.289855 L706,809.710145 C706,803.36715 701.333333,798 695.333333,798 L676.666667,798 C670.888889,798 666,803.123188 666,809.710145 L666,887.289855 C666,893.63285 670.666667,899 676.666667,899 L695.333333,899 C701.111111,899 706,893.876812 706,887.289855 Z" id="Shape"></path>
                <path d="M465.280788,937 L350.719212,937 C344.912972,937 340,932.056054 340,925.699552 L340,843.300448 C340,837.179372 344.689655,832 350.719212,832 L465.280788,832 C471.087028,832 476,836.943946 476,843.300448 L476,925.699552 C476,932.056054 471.087028,937 465.280788,937 Z" id="Shape"></path>
                <path d="M305.294118,916 L235.705882,916 C229.906863,916 225,906.298246 225,893.824561 L225,859.175439 C225,847.163743 229.683824,837 235.705882,837 L305.294118,837 C311.093137,837 316,846.701754 316,859.175439 L316,893.824561 C316,906.298246 311.093137,916 305.294118,916 Z" id="Shape"></path>
                <path d="M303.32,810 L235.68,810 C229.895,810 225,804.003525 225,796.293772 L225,580.706228 C225,573.282021 229.6725,567 235.68,567 L303.32,567 C309.105,567 314,572.996475 314,580.706228 L314,796.293772 C314,803.717979 309.105,810 303.32,810 Z" id="Shape"></path>
                <path d="M196.35,829 L146.65,829 C140.88125,829 136,822.967684 136,815.211849 L136,682.788151 C136,675.319569 140.659375,669 146.65,669 L196.35,669 C202.11875,669 207,675.032316 207,682.788151 L207,815.211849 C206.778125,822.967684 202.11875,829 196.35,829 Z" id="Shape"></path>
                <path d="M189.321101,650 L113.678899,650 C107.894495,650 103,644.071429 103,636.44898 L103,580.55102 C103,573.210884 107.672018,567 113.678899,567 L189.321101,567 C195.105505,567 200,572.928571 200,580.55102 L200,636.44898 C199.777523,643.789116 195.105505,650 189.321101,650 Z" id="Shape"></path>
                <path d="M77.5384615,635 L64.4615385,635 C58.7948718,635 54,629.079295 54,621.46696 L54,584.53304 C54,577.202643 58.5769231,571 64.4615385,571 L77.5384615,571 C83.2051282,571 88,576.920705 88,584.53304 L88,621.46696 C87.7820513,629.079295 83.2051282,635 77.5384615,635 Z" id="Shape"></path>
                <path d="M469.036199,543 L304.963801,543 C296.316742,543 289,533.840684 289,522.391539 L289,245.608461 C289,234.445545 296.095023,225 304.963801,225 L469.036199,225 C477.683258,225 485,234.159316 485,245.608461 L485,522.391539 C485,533.554455 477.683258,543 469.036199,543 Z" id="Shape" opacity="0.5"></path>
                <path d="M353.097087,206 L293.902913,206 C285.288835,206 278,196.921348 278,185.573034 L278,125.426966 C278,114.36236 285.067961,105 293.902913,105 L353.097087,105 C361.711165,105 369,114.078652 369,125.426966 L369,185.573034 C368.779126,196.921348 361.711165,206 353.097087,206 Z" id="Shape"></path>
                <path d="M253.423729,167 L222.576271,167 C216.847458,167 212,160.9375 212,153.142857 L212,83.8571429 C212,76.3511905 216.627119,70 222.576271,70 L253.423729,70 C259.152542,70 264,76.0625 264,83.8571429 L264,153.142857 C264,160.9375 259.372881,167 253.423729,167 Z" id="Shape"></path>
                <path d="M261.316129,376 L144.683871,376 C138.896774,376 134,370.004532 134,362.296073 L134,200.703927 C134,193.280967 138.674194,187 144.683871,187 L261.316129,187 C267.103226,187 272,192.995468 272,200.703927 L272,362.296073 C272,370.004532 267.325806,376 261.316129,376 Z" id="Shape" opacity="0.5"></path>
                <path d="M253.343629,542 L159.656371,542 C153.88417,542 149,536 149,528.285714 L149,407.714286 C149,400.285714 153.662162,394 159.656371,394 L253.343629,394 C259.11583,394 264,400 264,407.714286 L264,528.285714 C264,535.714286 259.337838,542 253.343629,542 Z" id="Shape"></path>
                <path d="M114.776623,546 L53.2233766,546 C47.6857143,546 43,539.981443 43,532.243299 L43,420.756701 C43,413.305155 47.4727273,407 53.2233766,407 L114.776623,407 C120.314286,407 125,413.018557 125,420.756701 L125,532.243299 C125,539.694845 120.314286,546 114.776623,546 Z" id="Shape" opacity="0.5"></path>
                <path d="M56.2563177,266 L15.7436823,266 C9.92418773,266 5,260.007712 5,252.303342 L5,168.696658 C5,161.277635 9.70036101,155 15.7436823,155 L56.2563177,155 C62.0758123,155 67,160.992288 67,168.696658 L67,252.303342 C67,260.007712 62.299639,266 56.2563177,266 Z" id="Shape" opacity="0.400000006"></path>
                <path d="M102.183099,388 L91.8169014,388 C85.9577465,388 81,382 81,374.285714 L81,269.714286 C81,262.285714 85.7323944,256 91.8169014,256 L102.183099,256 C108.042254,256 113,262 113,269.714286 L113,374.285714 C113,382 108.042254,388 102.183099,388 Z" id="Shape" opacity="0.300000012"></path>
                <path d="M55.590604,389 L10.6308725,389 C4.87248322,389 0,382.983146 0,375.247191 L0,351.752809 C0,344.303371 4.65100671,338 10.6308725,338 L55.3691275,338 C61.1275168,338 66,344.016854 66,351.752809 L66,375.533708 C66,382.983146 61.3489933,389 55.590604,389 Z" id="Shape"></path>
                <path d="M525.281553,721 L500.718447,721 C494.912621,721 490,715.02267 490,707.337531 L490,621.662469 C490,614.261965 494.68932,608 500.718447,608 L525.281553,608 C531.087379,608 536,613.97733 536,621.662469 L536,707.337531 C536,715.02267 531.31068,721 525.281553,721 Z" id="Shape"></path>
                <path d="M146.238482,138.980107 L94.6829268,138.980107 C88.9051491,138.980107 84.0162602,132.992299 84.0162602,125.29369 L84.0162602,101.627594 C84.0162602,94.2141176 88.6829268,87.9411765 94.6829268,87.9411765 L146.238482,87.9411765 C152.01626,87.9411765 156.905149,93.928984 156.905149,101.627594 L156.905149,125.29369 C156.905149,132.707166 152.238482,138.980107 146.238482,138.980107 Z" id="Shape"></path>
                <path d="M29.7777778,15 L54.4444444,15 C60.8888889,15 66.2222222,21.8432086 66.2222222,30.1120856 L66.2222222,44.3687701 C66.2222222,52.6376471 60.8888889,59.4808556 54.4444444,59.4808556 L29.7777778,59.4808556 C23.3333333,59.4808556 18,52.6376471 18,44.3687701 L18,30.1120856 C18,21.8432086 23.3333333,15 29.7777778,15 Z" id="Shape"></path>
                <path d="M184.067937,50.9801299 L120.211646,50.9801299 C113.055338,50.9801299 107,44.9992208 107,37.3094805 L107,13.6706494 C107,6.26571429 112.780095,1.0658141e-13 120.211646,1.0658141e-13 L184.067937,1.0658141e-13 C191.224245,1.0658141e-13 197.279583,5.98090909 197.279583,13.6706494 L197.279583,37.3094805 C197.279583,44.7144156 191.499488,50.9801299 184.067937,50.9801299 Z" id="Shape" opacity="0.300000012"></path>
                <path d="M447.648918,807 L359.351082,807 C346.958403,807 337,794.103321 337,778.054121 L337,602.945879 C337,586.896679 346.958403,574 359.351082,574 L447.648918,574 C460.041597,574 470,586.896679 470,602.945879 L470,778.054121 C470,793.816728 459.8203,807 447.648918,807 Z" id="Shape"></path>
            </g>
        </g>
    </g>
</svg>