<?xml version="1.0" encoding="UTF-8"?>
<svg width="249px" height="101px" viewBox="0 0 249 101" version="1.1" xmlns="http://www.w3.org/2000/svg" xmlns:xlink="http://www.w3.org/1999/xlink">
    <!-- Generator: Sketch 50.2 (55047) - http://www.bohemiancoding.com/sketch -->
    <title>Untitled-1</title>
    <desc>Created with Sketch.</desc>
    <defs></defs>
    <g id="Page-1" stroke="none" stroke-width="1" fill="none" fill-rule="evenodd">
        <g id="I-was-in-center" transform="translate(-409.000000, -2700.000000)" fill="#FFFFFF" fill-rule="nonzero">
            <g id="footer" transform="translate(2.000000, 2635.000000)">
                <g id="Untitled-1" transform="translate(407.000000, 65.979008)">
                    <path d="M66.1382799,0 L43.6762226,0 L43.6762226,3.23280227 C43.8010118,5.8439118 44.4249578,8.33068278 45.6728499,10.5687767 L45.6728499,10.6931152 C46.0472175,11.314808 46.296796,11.9365007 46.5463744,12.682532 C47.0455312,13.9259175 48.1686341,17.656074 48.9173693,21.510569 C49.0421585,22.1322617 49.1669477,22.7539545 49.1669477,23.2513087 C49.2917369,23.7486629 49.2917369,24.2460171 49.4165261,24.8677098 C49.915683,27.6031579 50.7892074,34.5661166 50.9139966,35.4364865 C51.0387858,35.9338407 50.9139966,36.4311949 50.539629,36.8042105 C50.2900506,37.0528876 50.0404722,37.3015647 49.6661046,37.3015647 C49.6661046,37.3015647 49.5413153,37.3015647 49.5413153,37.3015647 C48.7925801,37.3015647 48.1686341,36.679872 48.0438449,35.8095021 C48.0438449,35.8095021 45.7976391,25.8624182 45.7976391,25.8624182 C45.6728499,25.6137411 45.5480607,25.4894025 45.2984823,25.6137411 C45.0489039,25.6137411 44.9241147,25.7380796 44.9241147,25.9867567 C44.9241147,27.2301422 45.0489039,28.5978663 45.0489039,29.5925747 C45.0489039,30.0899289 45.0489039,30.4629445 45.1736931,30.7116216 C45.2984823,32.5766998 45.7976391,41.7777525 45.7976391,41.902091 L45.7976391,42.0264296 C45.7976391,43.0211379 45.1736931,43.8915078 44.3001686,44.0158463 C44.3001686,44.0158463 44.1753794,44.0158463 44.0505902,44.0158463 C43.1770658,44.0158463 42.4283305,43.269815 42.3035413,42.1507681 C42.1787521,41.5290754 41.9291737,39.1666429 41.6795953,36.928549 C41.4300169,35.3121479 40.6812816,28.7222048 40.306914,27.6031579 C40.306914,27.3544808 40.0573356,27.2301422 39.8077572,27.2301422 C39.5581788,27.2301422 39.4333895,27.3544808 39.4333895,27.4788193 L39.4333895,27.6031579 C39.1838111,28.3491892 39.0590219,38.047596 39.0590219,42.2751067 C39.0590219,43.5184921 39.0590219,44.388862 39.0590219,44.5132005 C38.9342327,45.6322475 38.1854975,46.6269559 37.1871838,46.6269559 C36.1888702,46.6269559 35.4401349,45.756586 35.3153457,44.6375391 C35.3153457,44.5132005 35.3153457,43.6428307 35.3153457,42.3994452 C35.1905565,38.2962731 35.0657673,28.4735277 34.9409781,27.7274964 C34.9409781,27.4788193 34.6913997,27.3544808 34.5666105,27.3544808 C34.317032,27.3544808 34.1922428,27.4788193 34.1922428,27.6031579 C33.693086,28.8465434 32.0708263,41.5290754 31.9460371,42.1507681 C31.8212479,43.1454765 31.0725126,44.0158463 30.1989882,44.0158463 C30.074199,44.0158463 30.074199,44.0158463 29.9494098,44.0158463 C29.0758853,43.8915078 28.4519393,43.0211379 28.4519393,42.0264296 L28.4519393,41.902091 C28.4519393,41.7777525 28.9510961,32.7010384 29.0758853,30.7116216 C29.0758853,30.4629445 29.0758853,29.9655903 29.2006745,29.5925747 C29.3254637,27.851835 29.450253,25.6137411 29.3254637,23.4999858 C29.3254637,23.0026316 28.8263069,22.7539545 28.5767285,22.7539545 C28.3271501,22.7539545 28.0775717,22.7539545 27.8279933,23.0026316 C27.2040472,23.7486629 26.5801012,24.6190327 25.9561551,25.4894025 C25.0826307,26.6084495 24.3338954,27.6031579 23.8347386,28.2248506 C22.7116358,29.4682361 21.5885329,30.2142674 20.5902192,30.2142674 C20.2158516,30.2142674 19.841484,30.0899289 19.5919056,29.8412518 C18.8431703,29.219559 19.0927487,28.7222048 19.7166948,27.851835 C19.9662732,27.4788193 20.3406408,26.8571266 20.5902192,26.2354338 C20.8397976,25.6137411 21.5885329,23.3756472 22.3372681,21.2618919 C23.2107926,18.8994594 23.9595278,16.537027 24.2091062,16.1640114 C24.7082631,14.6719488 25.4569983,13.0555476 26.455312,11.5634851 L26.455312,11.4391465 C27.9527825,8.82803698 28.7015177,5.8439118 28.7015177,2.85978663 L28.7015177,0.124338549 L7.61214165,0.124338549 C3.3693086,0.124338549 0,3.60581792 0,7.70899004 L0,92.3835419 C0,96.6110526 3.49409781,99.9681934 7.61214165,99.9681934 L32.5699831,99.9681934 L32.5699831,97.7300995 C32.5699831,94.9946514 31.8212479,92.5078804 30.4485666,90.2697866 C29.9494098,89.3994167 29.5750422,88.4047083 29.0758853,87.1613228 C28.7015177,86.1666144 28.2023609,82.5607965 27.8279933,78.7063015 C27.4536256,73.8570981 27.2040472,68.5105405 27.2040472,68.1375248 C27.2040472,68.1375248 27.2040472,68.1375248 27.2040472,68.1375248 C27.2040472,68.1375248 27.2040472,68.1375248 27.2040472,68.1375248 C27.2040472,67.5158321 27.4536256,67.0184779 28.0775717,66.8941394 C28.5767285,66.8941394 29.0758853,67.3914936 29.0758853,68.0131863 C29.2006745,68.3862019 29.8246206,72.9867283 30.1989882,75.2248221 C30.1989882,75.4734992 30.4485666,75.5978378 30.698145,75.5978378 C30.9477234,75.5978378 31.0725126,75.4734992 31.1973019,75.2248221 C31.0725126,72.6137126 30.698145,63.1639829 30.5733558,62.293613 C30.5733558,61.4232432 31.0725126,60.6772119 31.6964587,60.5528734 C32.4451939,60.4285348 33.06914,61.1745661 33.1939292,62.0449359 C33.3187184,62.7909672 33.8178752,69.8782645 34.4418212,72.3650355 C34.5666105,72.4893741 34.6913997,72.7380512 34.9409781,72.7380512 C35.1905565,72.7380512 35.3153457,72.6137126 35.4401349,72.3650355 C35.4401349,72.3650355 35.4401349,72.3650355 35.4401349,72.3650355 C35.5649241,70.6242958 35.6897133,60.5528734 35.6897133,59.6825035 C35.6897133,58.5634566 36.3136594,57.6930867 37.0623946,57.6930867 C37.9359191,57.6930867 38.4350759,58.5634566 38.4350759,59.558165 C38.4350759,59.558165 38.6846543,70.8729729 38.8094435,72.240697 C38.8094435,72.240697 38.8094435,72.240697 38.8094435,72.240697 C38.8094435,72.4893741 39.0590219,72.6137126 39.3086003,72.6137126 C39.4333895,72.6137126 39.682968,72.4893741 39.682968,72.3650355 C40.306914,70.0026031 40.8060708,62.6666287 40.93086,61.9205974 C41.0556492,61.0502276 41.6795953,60.3041963 42.4283305,60.3041963 C43.1770658,60.4285348 43.6762226,61.0502276 43.5514334,62.0449359 C43.5514334,62.9153058 43.0522766,72.3650355 43.5514334,76.3438691 C43.6762226,76.7168847 43.925801,76.9655618 44.3001686,76.9655618 C44.6745363,76.9655618 44.9241147,76.7168847 45.0489039,76.4682076 C45.6728499,74.7274679 45.6728499,74.1057752 46.296796,72.4893741 C46.7959528,70.9973115 47.7942664,70.0026031 48.9173693,70.2512802 C50.0404722,70.6242958 49.6661046,71.6190042 49.2917369,73.1110668 C49.1669477,73.7327595 48.6677909,76.4682076 48.2934233,78.581963 C47.7942664,82.436458 46.7959528,87.1613228 45.2984823,90.2697866 C44.0505902,92.5078804 43.301855,94.9946514 43.301855,97.7300995 L43.301855,99.8438548 L66.3878583,99.8438548 C70.6306914,99.8438548 74,96.3623755 74,92.2592033 L74,7.58465149 C73.8752108,3.35714082 70.381113,0 66.1382799,0" id="Shape"></path>
                    <polygon id="Shape" points="110 37.9879135 105.66443 37.9879135 105.66443 26.8974824 100.691275 34.9284842 100.181208 34.9284842 95.3355705 26.8974824 95.3355705 37.9879135 91 37.9879135 91 18.9939567 95.3355705 18.9939567 100.436242 27.4073872 105.66443 18.9939567 110 18.9939567"></polygon>
                    <rect id="Rectangle-path" x="114" y="18.9939567" width="4" height="18.9939567"></rect>
                    <path d="M132.896552,27.7054707 L126.017241,37.9879135 L123,37.9879135 L123,19.0732966 L127.103448,19.0732966 L127.103448,29.3557393 L133.982759,19.0732966 L137,19.0732966 L137,37.9879135 L132.896552,37.9879135 L132.896552,27.7054707 Z M126.137931,13.9955471 L133.862069,13.9955471 L133.862069,17.5499717 L126.137931,17.5499717 L126.137931,13.9955471 Z" id="Shape"></path>
                    <polygon id="Shape" points="105 45.985369 105 63.9796438 100.947368 63.9796438 100.947368 56.8062504 95.1754386 56.8062504 95.1754386 63.9796438 91 63.9796438 91 45.985369 95.1754386 45.985369 95.1754386 52.9155964 100.947368 52.9155964 100.947368 45.985369"></polygon>
                    <path d="M120.461538,61.1832362 L113.538462,61.1832362 L112.657343,63.9796438 L108,63.9796438 L114.293706,45.985369 L119.706294,45.985369 L126,63.9796438 L121.342657,63.9796438 L120.461538,61.1832362 Z M119.202797,57.2925822 L117.062937,50.7271035 L114.923077,57.2925822 L119.202797,57.2925822 Z" id="Shape"></path>
                    <path d="M127,54.4826654 C127,49.0558206 131.085106,44.985687 136.829787,44.985687 C140.276596,44.985687 143.340426,46.589073 145,49.179158 L141.297872,51.2758935 C140.404255,49.9191823 138.87234,49.0558206 136.957447,49.0558206 C133.638298,49.0558206 131.468085,51.2758935 131.468085,54.4826654 C131.468085,57.8127747 133.638298,59.9095102 136.957447,59.9095102 C138.87234,59.9095102 140.531915,59.0461485 141.297872,57.6894373 L145,59.7861728 C143.340426,62.3762578 140.404255,63.9796438 136.829787,63.9796438 C131.212766,63.9796438 127,59.9095102 127,54.4826654" id="Shape"></path>
                    <polygon id="Shape" points="160 49.9976059 155.207207 49.9976059 155.207207 63.9796438 150.918919 63.9796438 150.918919 49.9976059 146 49.9976059 146 45.985369 160 45.985369"></polygon>
                    <path d="M172.461538,61.1832362 L165.538462,61.1832362 L164.657343,63.9796438 L160,63.9796438 L166.293706,45.985369 L171.706294,45.985369 L178,63.9796438 L173.342657,63.9796438 L172.461538,61.1832362 Z M171.202797,57.2925822 L169.062937,50.7271035 L166.923077,57.2925822 L171.202797,57.2925822 Z" id="Shape"></path>
                    <path d="M194,58.7515774 C194,61.9127338 191.327273,63.9796438 187.890909,63.9796438 L180,63.9796438 L180,45.985369 L187.381818,45.985369 C190.690909,45.985369 193.363636,48.0522789 193.363636,51.0918523 C193.363636,52.5508476 192.727273,53.766677 191.709091,54.6177575 C193.109091,55.4688381 194,56.9278334 194,58.7515774 Z M184.327273,49.876023 L184.327273,53.0371794 L187.381818,53.0371794 C188.4,53.0371794 189.036364,52.3076817 189.036364,51.4566012 C189.036364,50.4839377 188.4,49.876023 187.381818,49.876023 L184.327273,49.876023 Z M189.8,58.3868286 C189.8,57.4141651 189.036364,56.6846675 188.018182,56.6846675 L184.327273,56.6846675 L184.327273,60.0889898 L187.890909,60.0889898 C189.036364,60.2105727 189.8,59.4810751 189.8,58.3868286 Z" id="Shape"></path>
                    <polygon id="Shape" points="211 45.985369 211 63.9796438 206.86087 63.9796438 206.86087 56.8062504 201.13913 56.8062504 201.13913 63.9796438 197 63.9796438 197 45.985369 201.13913 45.985369 201.13913 52.9155964 206.86087 52.9155964 206.86087 45.985369"></polygon>
                    <polygon id="Shape" points="225.641026 54.2530087 218.205128 63.9796438 215 63.9796438 215 45.985369 219.358974 45.985369 219.358974 55.8335869 226.666667 45.985369 230 45.985369 230 63.9796438 225.641026 63.9796438"></polygon>
                    <polygon id="Shape" points="244.125 63.9796438 238.25 55.712004 238.25 63.9796438 234 63.9796438 234 45.985369 238.25 45.985369 238.25 53.766677 243.875 45.985369 248.75 45.985369 242.5 54.7393405 249 63.9796438"></polygon>
                    <path d="M93.52,76.8834329 C94,76.8834329 94.6,76.7650496 94.96,76.5282828 C95.32,76.291516 95.44,75.9363658 95.44,75.4628323 C95.44,74.9892987 95.2,74.6341486 94.96,74.5157652 C94.6,74.160615 94.12,74.160615 93.64,74.160615 C93.04,74.160615 92.2,74.2789984 91.48,74.6341486 L91.36,73.4503147 C92.08,73.2135479 92.92,72.9767812 93.76,72.9767812 C94.36,72.9767812 95.2,72.9767812 95.92,73.5686981 C96.4,73.9238483 96.76,74.5157652 96.76,75.3444489 C96.76,75.8179825 96.64,76.291516 96.28,76.6466662 C96.04,77.0018163 95.44,77.1201997 95.2,77.2385831 C95.8,77.3569665 96.28,77.5937333 96.52,77.9488834 C96.88,78.3040336 97,78.7775671 97,79.3694841 C97,80.3165512 96.52,81.0268515 95.92,81.3820016 C95.2,81.9739186 94.24,81.9739186 93.52,81.9739186 C92.56,81.9739186 91.72,81.7371518 91,81.3820016 L91.12,80.1981678 C92.2,80.6717013 93.04,80.7900847 93.52,80.7900847 C94,80.7900847 94.48,80.7900847 94.96,80.4349345 C95.32,80.1981678 95.56,79.7246342 95.56,79.2511007 C95.56,78.7775671 95.32,78.422417 95.08,78.1856502 C94.6,77.8305 93.88,77.7121166 93.52,77.7121166 L92.68,77.7121166 L92.68,76.6466662 L93.52,76.6466662 L93.52,76.8834329 Z" id="Shape"></path>
                    <polygon id="Shape" points="100 72.9767812 102.222222 72.9767812 105.061728 80.4144148 107.901235 72.9767812 110 72.9767812 110 81.9739186 108.765432 81.9739186 108.765432 74.1763995 108.765432 74.1763995 105.679012 81.9739186 104.444444 81.9739186 101.358025 74.1763995 101.358025 74.1763995 101.358025 81.9739186 100 81.9739186"></polygon>
                    <rect id="Rectangle-path" x="113" y="72.9767812" width="1" height="8.9971374"></rect>
                    <polygon id="Shape" points="117 72.9767812 118.350877 72.9767812 118.350877 76.695598 122.649123 76.695598 122.649123 72.9767812 124 72.9767812 124 81.9739186 122.649123 81.9739186 122.649123 77.8952163 118.350877 77.8952163 118.350877 81.9739186 117 81.9739186"></polygon>
                    <path d="M127,72.9767812 L128.442623,72.9767812 L128.442623,79.0948346 L128.442623,80.1744911 L128.57377,80.1744911 C128.967213,79.5746819 129.098361,79.3347583 129.491803,78.7349491 L133.42623,72.9767812 L135,72.9767812 L135,81.8539567 L133.557377,81.8539567 L133.557377,75.8558651 L133.557377,74.7762087 L133.42623,74.7762087 C133.032787,75.4959796 132.901639,75.7359033 132.508197,76.2157506 L128.57377,81.9739186 L127,81.9739186 L127,72.9767812 Z" id="Shape"></path>
                    <polygon id="Shape" points="146.625 76.9355216 146.75 76.9355216 150.125 72.9767812 151.625 72.9767812 148 77.1754453 152 81.9739186 150.25 81.9739186 146.75 77.5353308 146.625 77.5353308 146.625 81.9739186 145.375 81.9739186 145.375 77.5353308 145.25 77.5353308 141.75 81.9739186 140 81.9739186 144 77.1754453 140.375 72.9767812 141.875 72.9767812 145.25 76.9355216 145.375 76.9355216 145.375 72.9767812 146.625 72.9767812"></polygon>
                    <path d="M154,72.9767812 L155.442623,72.9767812 L155.442623,79.0948346 L155.442623,80.1744911 L155.57377,80.1744911 C155.967213,79.5746819 156.098361,79.3347583 156.491803,78.7349491 L160.42623,72.9767812 L162,72.9767812 L162,81.8539567 L160.557377,81.8539567 L160.557377,75.8558651 L160.557377,74.7762087 L160.42623,74.7762087 C160.032787,75.4959796 159.901639,75.7359033 159.508197,76.2157506 L155.57377,81.9739186 L154,81.9739186 L154,72.9767812 Z" id="Shape"></path>
                    <polygon id="Shape" points="165.824561 74.1763995 163 74.1763995 163 72.9767812 170 72.9767812 170 74.1763995 167.175439 74.1763995 167.175439 81.9739186 165.824561 81.9739186"></polygon>
                    <polygon id="Shape" points="173.824561 74.1763995 171 74.1763995 171 72.9767812 178 72.9767812 178 74.1763995 175.175439 74.1763995 175.175439 81.9739186 173.824561 81.9739186"></polygon>
                    <path d="M186,81.9739186 L184.730769,81.9739186 L184.730769,78.422417 L183.346154,78.422417 L181.5,81.9739186 L180,81.9739186 L182.076923,78.1856502 C181.384615,77.9488834 180.923077,77.4753499 180.923077,77.3569665 C180.576923,76.8834329 180.346154,76.291516 180.346154,75.6995991 C180.346154,75.1076821 180.461538,74.2789984 181.153846,73.6870815 C181.846154,73.0951646 182.653846,72.9767812 183.346154,72.9767812 L185.769231,72.9767812 L185.769231,81.9739186 L186,81.9739186 Z M184.730769,74.2789984 L183.461538,74.2789984 C183.115385,74.2789984 182.653846,74.2789984 182.307692,74.6341486 C182.076923,74.8709154 181.846154,75.2260655 181.846154,75.8179825 C181.846154,76.291516 182.076923,76.6466662 182.307692,76.8834329 C182.769231,77.3569665 183.346154,77.3569665 183.923077,77.3569665 L184.846154,77.3569665 L184.846154,74.2789984 L184.730769,74.2789984 Z" id="Shape"></path>
                    <path d="M192.588235,80.9522656 C193.176471,79.8646995 193.411765,79.0188148 193.529412,78.4146115 C193.647059,77.8104081 193.764706,76.9645234 193.764706,75.272754 L193.882353,72.9767812 L198.941176,72.9767812 L198.941176,80.8314249 L200,80.8314249 L200,83.9732824 L198.823529,83.9732824 L198.823529,81.918991 L193.176471,81.918991 L193.176471,83.9732824 L192,83.9732824 L192,80.8314249 L192.588235,80.8314249 L192.588235,80.9522656 Z M194.941176,74.3060286 L194.823529,76.2394794 C194.823529,77.0853641 194.705882,77.9312488 194.588235,78.8979742 C194.470588,79.7438589 194.235294,80.3480622 193.764706,81.0731063 L197.647059,81.0731063 L197.647059,74.3060286 L194.941176,74.3060286 Z" id="Shape"></path>
                    <path d="M202,72.9767812 L203.442623,72.9767812 L203.442623,79.0948346 L203.442623,80.1744911 L203.57377,80.1744911 C203.967213,79.5746819 204.098361,79.3347583 204.491803,78.7349491 L208.42623,72.9767812 L210,72.9767812 L210,81.8539567 L208.557377,81.8539567 L208.557377,75.8558651 L208.557377,74.7762087 L208.42623,74.7762087 C208.032787,75.4959796 207.901639,75.7359033 207.508197,76.2157506 L203.57377,81.9739186 L202,81.9739186 L202,72.9767812 Z" id="Shape"></path>
                    <polygon id="Shape" points="213.824561 74.1763995 211 74.1763995 211 72.9767812 218 72.9767812 218 74.1763995 215.052632 74.1763995 215.052632 81.9739186 213.824561 81.9739186"></polygon>
                    <path d="M220,72.9767812 L221.442623,72.9767812 L221.442623,79.0948346 L221.442623,80.1744911 L221.57377,80.1744911 C221.967213,79.5746819 222.098361,79.3347583 222.491803,78.7349491 L226.42623,72.9767812 L228,72.9767812 L228,81.8539567 L226.557377,81.8539567 L226.557377,75.8558651 L226.557377,74.7762087 L226.42623,74.7762087 C226.032787,75.4959796 225.901639,75.7359033 225.508197,76.2157506 L221.57377,81.9739186 L220,81.9739186 L220,72.9767812 Z" id="Shape"></path>
                    <polygon id="Shape" points="231 72.9767812 232.25 72.9767812 232.25 76.695598 236.75 76.695598 236.75 72.9767812 238 72.9767812 238 81.9739186 236.75 81.9739186 236.75 77.8952163 232.25 77.8952163 232.25 81.9739186 231 81.9739186"></polygon>
                    <path d="M240,72.9767812 L241.442623,72.9767812 L241.442623,79.0948346 L241.442623,80.1744911 L241.57377,80.1744911 C241.967213,79.5746819 242.098361,79.3347583 242.491803,78.7349491 L246.42623,72.9767812 L248,72.9767812 L248,81.8539567 L246.557377,81.8539567 L246.557377,75.8558651 L246.557377,74.7762087 L246.42623,74.7762087 C246.032787,75.4959796 245.901639,75.7359033 245.508197,76.2157506 L241.57377,81.9739186 L240,81.9739186 L240,72.9767812 Z" id="Shape"></path>
                </g>
            </g>
        </g>
    </g>
</svg>