<?xml version="1.0" encoding="UTF-8"?>
<svg width="16px" height="29px" viewBox="0 0 16 29" version="1.1" xmlns="http://www.w3.org/2000/svg" xmlns:xlink="http://www.w3.org/1999/xlink">
    <!-- Generator: Sketch 50.2 (55047) - http://www.bohemiancoding.com/sketch -->
    <title>Group 7</title>
    <desc>Created with Sketch.</desc>
    <defs></defs>
    <g id="Page-1" stroke="none" stroke-width="1" fill="none" fill-rule="evenodd">
        <g id="Main-page-SCCCDM-наставники-випадающее-меню" transform="translate(-618.000000, -273.000000)" fill="#0FAD19" fill-rule="nonzero">
            <g id="Group-7" transform="translate(618.000000, 273.000000)">
                <path d="M13.9438867,0 L2.05611326,0 C0.918404118,0 0,0.946869762 0,2.1124918 L0,26.8896217 C0,28.054187 0.918404118,29 2.05611326,29 L13.9438867,29 C15.0795367,29 16,28.054187 16,26.8896217 L16,2.1124918 C16,0.946869762 15.0795367,0 13.9438867,0 Z M5.06666667,1.28292399 L10.9353925,1.28292399 C11.0836551,1.28292399 11.2041184,1.51013046 11.2041184,1.79123242 C11.2041184,2.07233438 11.0836551,2.30059762 10.9353925,2.30059762 L5.06666667,2.30059762 C4.91737452,2.30059762 4.7989704,2.07233438 4.7989704,1.79123242 C4.7989704,1.51013046 4.91737452,1.28292399 5.06666667,1.28292399 Z M8.0010296,26.9149843 C7.27722008,26.9149843 6.68828829,26.3105094 6.68828829,25.5665403 C6.68828829,24.8225712 7.27722008,24.2202099 8.0010296,24.2202099 C8.72277992,24.2202099 9.31171171,24.8225712 9.31171171,25.5665403 C9.31171171,26.3105094 8.72277992,26.9149843 8.0010296,26.9149843 Z M14.4597169,22.2979375 L1.54131274,22.2979375 L1.54131274,3.56449967 L14.4597169,3.56449967 L14.4597169,22.2979375 Z" id="Shape"></path>
            </g>
        </g>
    </g>
</svg>