<?xml version="1.0" encoding="UTF-8"?>
<svg width="619px" height="1221px" viewBox="0 0 619 1221" version="1.1" xmlns="http://www.w3.org/2000/svg" xmlns:xlink="http://www.w3.org/1999/xlink">
    <!-- Generator: Sketch 50.2 (55047) - http://www.bohemiancoding.com/sketch -->
    <title>logo_big_2</title>
    <desc>Created with Sketch.</desc>
    <defs></defs>
    <g id="Page-1" stroke="none" stroke-width="1" fill="none" fill-rule="evenodd" opacity="0.049999997">
        <g id="Main-page-SCCCDM" transform="translate(-275.000000, -126.000000)" fill="#037286" fill-rule="nonzero">
            <g id="logo_big_2" transform="translate(275.000000, 126.000000)">
                <path d="M590.62069,1221 L490.37931,1221 C485.298851,1221 481,1218.08072 481,1214.32735 L481,1165.67265 C481,1162.0583 485.103448,1159 490.37931,1159 L590.62069,1159 C595.701149,1159 600,1161.91928 600,1165.67265 L600,1214.32735 C600,1218.08072 595.701149,1221 590.62069,1221 Z" id="Shape"></path>
                <path d="M450.588235,1221 L389.411765,1221 C384.313725,1221 380,1214.36842 380,1205.84211 L380,1182.15789 C380,1173.94737 384.117647,1167 389.411765,1167 L450.588235,1167 C455.686275,1167 460,1173.63158 460,1182.15789 L460,1205.84211 C460,1214.36842 455.686275,1221 450.588235,1221 Z" id="Shape"></path>
                <path d="M354.7,1161 L311.3,1161 C306.2625,1161 302,1156.89048 302,1151.60682 L302,1061.39318 C302,1056.30521 306.06875,1052 311.3,1052 L354.7,1052 C359.7375,1052 364,1056.10952 364,1061.39318 L364,1151.60682 C363.80625,1156.89048 359.7375,1161 354.7,1161 Z" id="Shape"></path>
                <path d="M512.608696,301 L441.391304,301 C436.304348,301 432,296.896552 432,291.62069 L432,208.37931 C432,203.298851 436.108696,199 441.391304,199 L512.608696,199 C517.695652,199 522,203.103448 522,208.37931 L522,291.62069 C521.804348,296.701149 517.695652,301 512.608696,301 Z" id="Shape" opacity="0.5"></path>
                <path d="M503.829268,391 L450.365854,391 C445.292683,391 441,386.902439 441,381.634146 L441,328.365854 C441,323.292683 445.097561,319 450.365854,319 L503.634146,319 C508.707317,319 513,323.097561 513,328.365854 L513,381.634146 C513,386.707317 508.902439,391 503.829268,391 Z" id="Shape"></path>
                <path d="M495.688525,559 L443.311475,559 C438.26776,559 434,554.891304 434,549.608696 L434,514.391304 C434,509.304348 438.07377,505 443.311475,505 L495.688525,505 C500.73224,505 505,509.108696 505,514.391304 L505,549.608696 C505,554.695652 500.73224,559 495.688525,559 Z" id="Shape" opacity="0.5"></path>
                <path d="M571,545.226519 L571,500.773481 C571,498.187845 566.873362,496 561.567686,496 L535.432314,496 C530.323144,496 526,498.088398 526,500.773481 L526,545.226519 C526,547.812155 530.126638,550 535.432314,550 L561.567686,550 C566.676856,549.900552 571,547.812155 571,545.226519 Z" id="Shape"></path>
                <path d="M619,606 L619,553 C619,548.666667 614.916667,545 609.666667,545 L593.333333,545 C588.277778,545 584,548.5 584,553 L584,606 C584,610.333333 588.083333,614 593.333333,614 L609.666667,614 C614.722222,614 619,610.5 619,606 Z" id="Shape"></path>
                <path d="M407.62069,640 L307.37931,640 C302.298851,640 298,636.609865 298,632.251121 L298,575.748879 C298,571.55157 302.103448,568 307.37931,568 L407.62069,568 C412.701149,568 417,571.390135 417,575.748879 L417,632.251121 C417,636.609865 412.701149,640 407.62069,640 Z" id="Shape"></path>
                <path d="M267.588235,626 L206.411765,626 C201.313725,626 197,619.368421 197,610.842105 L197,587.157895 C197,578.947368 201.117647,572 206.411765,572 L267.588235,572 C272.686275,572 277,578.631579 277,587.157895 L277,610.842105 C277,619.368421 272.686275,626 267.588235,626 Z" id="Shape"></path>
                <path d="M265.64,553 L206.36,553 C201.29,553 197,548.903643 197,543.636898 L197,396.363102 C197,391.291422 201.095,387 206.36,387 L265.64,387 C270.71,387 275,391.096357 275,396.363102 L275,543.636898 C275,548.708578 270.71,553 265.64,553 Z" id="Shape"></path>
                <path d="M171.7,566 L128.3,566 C123.2625,566 119,561.890485 119,556.606822 L119,466.393178 C119,461.305206 123.06875,457 128.3,457 L171.7,457 C176.7375,457 181,461.109515 181,466.393178 L181,556.606822 C180.80625,561.890485 176.7375,566 171.7,566 Z" id="Shape" opacity="0.5"></path>
                <path d="M165.642202,444 L99.3577982,444 C94.2889908,444 90,439.928571 90,434.693878 L90,396.306122 C90,391.265306 94.0940367,387 99.3577982,387 L165.642202,387 C170.711009,387 175,391.071429 175,396.306122 L175,434.693878 C174.805046,439.734694 170.711009,444 165.642202,444 Z" id="Shape"></path>
                <path d="M67.7692308,434 L56.2307692,434 C51.2307692,434 47,429.929515 47,424.696035 L47,399.303965 C47,394.264317 51.0384615,390 56.2307692,390 L67.7692308,390 C72.7692308,390 77,394.070485 77,399.303965 L77,424.696035 C76.8076923,429.929515 72.7692308,434 67.7692308,434 Z" id="Shape"></path>
                <path d="M402.99095,371 L259.00905,371 C251.420814,371 245,364.749775 245,356.936994 L245,168.063006 C245,160.445545 251.226244,154 259.00905,154 L402.99095,154 C410.579186,154 417,160.250225 417,168.063006 L417,356.936994 C417,364.554455 410.579186,371 402.99095,371 Z" id="Shape"></path>
                <path d="M310.019417,141 L257.980583,141 C250.407767,141 244,134.797753 244,127.044944 L244,85.9550562 C244,78.3960674 250.213592,72 257.980583,72 L310.019417,72 C317.592233,72 324,78.2022472 324,85.9550562 L324,127.044944 C323.805825,134.797753 317.592233,141 310.019417,141 Z" id="Shape"></path>
                <path d="M222.644068,114 L195.355932,114 C190.288136,114 186,109.875 186,104.571429 L186,57.4285714 C186,52.3214286 190.09322,48 195.355932,48 L222.644068,48 C227.711864,48 232,52.125 232,57.4285714 L232,104.571429 C232,109.875 227.90678,114 222.644068,114 Z" id="Shape"></path>
                <path d="M222.632258,257 L120.367742,257 C115.293548,257 111,252.907855 111,247.646526 L111,137.353474 C111,132.287009 115.098387,128 120.367742,128 L222.632258,128 C227.706452,128 232,132.092145 232,137.353474 L232,247.646526 C232,252.907855 227.901613,257 222.632258,257 Z" id="Shape" opacity="0.200000003"></path>
                <path d="M222.640927,370 L140.359073,370 C135.289575,370 131,365.905405 131,360.640927 L131,278.359073 C131,273.289575 135.094595,269 140.359073,269 L222.640927,269 C227.710425,269 232,273.094595 232,278.359073 L232,360.640927 C232,365.710425 227.905405,370 222.640927,370 Z" id="Shape" opacity="0.400000006"></path>
                <path d="M108.649351,373 L52.3506494,373 C47.2857143,373 43,368.886598 43,363.597938 L43,287.402062 C43,282.309278 47.0909091,278 52.3506494,278 L108.649351,278 C113.714286,278 118,282.113402 118,287.402062 L118,363.597938 C118,368.690722 113.714286,373 108.649351,373 Z" id="Shape" opacity="0.300000012"></path>
                <path d="M48.6425993,182 L13.3574007,182 C8.28880866,182 4,177.897172 4,172.622108 L4,115.377892 C4,110.298201 8.09386282,106 13.3574007,106 L48.6425993,106 C53.7111913,106 58,110.102828 58,115.377892 L58,172.622108 C58,177.897172 53.9061372,182 48.6425993,182 Z" id="Shape"></path>
                <path d="M89.5352113,265 L80.4647887,265 C75.3380282,265 71,260.909091 71,255.649351 L71,184.350649 C71,179.285714 75.1408451,175 80.4647887,175 L89.5352113,175 C94.6619718,175 99,179.090909 99,184.350649 L99,255.649351 C99,260.909091 94.6619718,265 89.5352113,265 Z" id="Shape"></path>
                <path d="M48.852349,266 L9.34228188,266 C4.28187919,266 0,261.870787 0,256.561798 L0,240.438202 C0,235.325843 4.08724832,231 9.34228188,231 L48.6577181,231 C53.7181208,231 58,235.129213 58,240.438202 L58,256.758427 C58,261.870787 53.9127517,266 48.852349,266 Z" id="Shape" opacity="0.400000006"></path>
                <path d="M460.679612,492 L439.320388,492 C434.271845,492 430,487.926952 430,482.690176 L430,424.309824 C430,419.267003 434.07767,415 439.320388,415 L460.679612,415 C465.728155,415 470,419.073048 470,424.309824 L470,482.690176 C470,487.926952 465.92233,492 460.679612,492 Z" id="Shape"></path>
                <path d="M128.666667,94.9863636 L83.3714286,94.9863636 C78.2952381,94.9863636 74,90.8818182 74,85.6045455 L74,69.3818182 C74,64.3 78.1,60 83.3714286,60 L128.666667,60 C133.742857,60 138.038095,64.1045455 138.038095,69.3818182 L138.038095,85.6045455 C138.038095,90.6863636 133.938095,94.9863636 128.666667,94.9863636 Z" id="Shape"></path>
                <path d="M26.347619,10 L48.0190476,10 C53.6809524,10 58.3666667,14.6909091 58.3666667,20.3590909 L58.3666667,30.1318182 C58.3666667,35.8 53.6809524,40.4909091 48.0190476,40.4909091 L26.347619,40.4909091 C20.6857143,40.4909091 16,35.8 16,30.1318182 L16,20.3590909 C16,14.6909091 20.6857143,10 26.347619,10 Z" id="Shape" opacity="0.200000003"></path>
                <path d="M161.752033,34.9863636 L105.614634,34.9863636 C99.323374,34.9863636 94,30.8818182 94,25.6045455 L94,9.38181818 C94,4.3 99.0814024,1.0658141e-13 105.614634,1.0658141e-13 L161.752033,1.0658141e-13 C168.043293,1.0658141e-13 173.366667,4.10454545 173.366667,9.38181818 L173.366667,25.6045455 C173.366667,30.6863636 168.285264,34.9863636 161.752033,34.9863636 Z" id="Shape" opacity="0.5"></path>
                <path d="M393.33777,551 L315.66223,551 C304.760399,551 296,542.199262 296,531.247232 L296,411.752768 C296,400.800738 304.760399,392 315.66223,392 L393.33777,392 C404.239601,392 413,400.800738 413,411.752768 L413,531.247232 C413,542.00369 404.044925,551 393.33777,551 Z" id="Shape" opacity="0.5"></path>
            </g>
        </g>
    </g>
</svg>