<?xml version="1.0" encoding="UTF-8"?>
<svg width="1920px" height="144px" viewBox="0 0 1920 144" version="1.1" xmlns="http://www.w3.org/2000/svg" xmlns:xlink="http://www.w3.org/1999/xlink">
    <!-- Generator: Sketch 50.2 (55047) - http://www.bohemiancoding.com/sketch -->
    <title>logo_big_2</title>
    <desc>Created with Sketch.</desc>
    <defs></defs>
    <g id="Page-1" stroke="none" stroke-width="1" fill="none" fill-rule="evenodd" opacity="0.1">
        <g id="Welcome-video-2" transform="translate(0.000000, -833.000000)" fill="#037286" fill-rule="nonzero">
            <g id="logo_big_2" transform="translate(-3.000000, 833.000000)">
                <path d="M1083,142.949427 L922,142.949427 C914.416667,142.949427 908,136.681465 908,128.846513 L908,22.0952814 C908,14.4562024 914.222222,7.99236641 922,7.99236641 L1083,7.99236641 C1090.58333,7.99236641 1097,14.2603286 1097,22.0952814 L1097,128.846513 C1096.80556,136.485591 1090.58333,142.949427 1083,142.949427 Z" id="Shape"></path>
                <path d="M881.608696,142.949427 L810.391304,142.949427 C805.304348,142.949427 801,141.662481 801,140.007835 L801,113.901198 C801,112.307836 805.108696,110.959606 810.391304,110.959606 L881.608696,110.959606 C886.695652,110.959606 891,112.246552 891,113.901198 L891,140.007835 C890.804348,141.601197 886.695652,142.949427 881.608696,142.949427 Z" id="Shape"></path>
                <path d="M1134.6014,138.9507 L1125.3986,138.9507 C1120.30769,138.9507 1116,134.861092 1116,129.603025 L1116,58.3270009 C1116,53.2636768 1120.11189,48.9793257 1125.3986,48.9793257 L1134.6014,48.9793257 C1139.69231,48.9793257 1144,53.0689336 1144,58.3270009 L1144,129.603025 C1143.8042,134.861092 1139.69231,138.9507 1134.6014,138.9507 Z" id="Shape"></path>
                <path d="M1218.67085,135.951654 L1175.32915,135.951654 C1170.27586,135.951654 1166,131.904749 1166,126.701585 L1166,113.211901 C1166,108.201447 1170.0815,103.961832 1175.32915,103.961832 L1218.67085,103.961832 C1223.72414,103.961832 1228,108.008737 1228,113.211901 L1228,126.701585 C1228,131.712039 1223.72414,135.951654 1218.67085,135.951654 Z" id="Shape"></path>
                <path d="M682.019417,114.958333 L629.980583,114.958333 C622.407767,114.958333 616,108.758059 616,101.007716 L616,59.9308974 C616,52.3743129 622.213592,45.9802799 629.980583,45.9802799 L682.019417,45.9802799 C689.592233,45.9802799 696,52.1805544 696,59.9308974 L696,101.007716 C695.805825,108.758059 689.592233,114.958333 682.019417,114.958333 Z" id="Shape"></path>
                <path d="M735.686567,55.9770992 L715.313433,55.9770992 C710.268657,55.9770992 706,51.9183906 706,46.7000509 L706,36.2633715 C706,31.2383036 710.074627,26.9863232 715.313433,26.9863232 L735.686567,26.9863232 C740.731343,26.9863232 745,31.0450318 745,36.2633715 L745,46.7000509 C745,51.9183906 740.731343,55.9770992 735.686567,55.9770992 Z" id="Shape"></path>
                <path d="M1606,130.953244 L1445,130.953244 C1437.41667,130.953244 1431,128.446059 1431,125.312078 L1431,82.6115858 C1431,79.5559543 1437.22222,76.9704198 1445,76.9704198 L1606,76.9704198 C1613.58333,76.9704198 1620,79.4776047 1620,82.6115858 L1620,125.312078 C1619.80556,128.36771 1613.58333,130.953244 1606,130.953244 Z" id="Shape"></path>
                <path d="M1321.01942,93.9650127 L1268.98058,93.9650127 C1261.40777,93.9650127 1255,87.7647383 1255,80.0143952 L1255,38.9375768 C1255,31.3809923 1261.21359,24.9869593 1268.98058,24.9869593 L1321.01942,24.9869593 C1328.59223,24.9869593 1335,31.1872338 1335,38.9375768 L1335,80.0143952 C1334.80583,87.7647383 1328.59223,93.9650127 1321.01942,93.9650127 Z" id="Shape"></path>
                <path d="M1233.64407,90.9659669 L1206.35593,90.9659669 C1201.28814,90.9659669 1197,85.342756 1197,78.1129135 L1197,13.8476463 C1197,6.8855757 1201.09322,0.994592875 1206.35593,0.994592875 L1233.64407,0.994592875 C1238.71186,0.994592875 1243,6.61780375 1243,13.8476463 L1243,78.1129135 C1243,85.342756 1238.90678,90.9659669 1233.64407,90.9659669 Z" id="Shape"></path>
                <path d="M1918.18881,143.949109 L1897.81119,143.949109 C1886.53846,143.949109 1877,139.859502 1877,134.601434 L1877,63.3254106 C1877,58.2620865 1886.1049,53.9777354 1897.81119,53.9777354 L1918.18881,53.9777354 C1929.46154,53.9777354 1939,58.0673433 1939,63.3254106 L1939,134.601434 C1938.56643,139.859502 1929.46154,143.949109 1918.18881,143.949109 Z" id="Shape"></path>
                <path d="M1718.67085,124.955153 L1675.32915,124.955153 C1670.27586,124.955153 1666,120.908247 1666,115.705084 L1666,102.2154 C1666,97.2049457 1670.0815,92.9653308 1675.32915,92.9653308 L1718.67085,92.9653308 C1723.72414,92.9653308 1728,97.012236 1728,102.2154 L1728,115.705084 C1728,120.715538 1723.72414,124.955153 1718.67085,124.955153 Z" id="Shape" transform="translate(1697.000000, 108.960242) scale(1, -1) rotate(90.000000) translate(-1697.000000, -108.960242) "></path>
                <path d="M1821.01942,123.955471 L1768.98058,123.955471 C1761.40777,123.955471 1755,117.755196 1755,110.004853 L1755,68.9280349 C1755,61.3714503 1761.21359,54.9774173 1768.98058,54.9774173 L1821.01942,54.9774173 C1828.59223,54.9774173 1835,61.1776918 1835,68.9280349 L1835,110.004853 C1834.80583,117.755196 1828.59223,123.955471 1821.01942,123.955471 Z" id="Shape" transform="translate(1795.000000, 89.466444) scale(1, -1) rotate(90.000000) translate(-1795.000000, -89.466444) "></path>
                <path d="M1663.64407,70.9723282 L1636.35593,70.9723282 C1631.28814,70.9723282 1627,65.3491174 1627,58.1192748 L1627,-6.14599237 C1627,-13.108063 1631.09322,-18.9990458 1636.35593,-18.9990458 L1663.64407,-18.9990458 C1668.71186,-18.9990458 1673,-13.3758349 1673,-6.14599237 L1673,58.1192748 C1673,65.3491174 1668.90678,70.9723282 1663.64407,70.9723282 Z" id="Shape" transform="translate(1650.000000, 25.986641) scale(1, -1) rotate(90.000000) translate(-1650.000000, -25.986641) "></path>
                <path d="M591.632258,142.949427 L489.367742,142.949427 C484.293548,142.949427 480,139.714807 480,135.556009 L480,48.3752883 C480,44.3705202 484.098387,40.9818702 489.367742,40.9818702 L591.632258,40.9818702 C596.706452,40.9818702 601,44.2164906 601,48.3752883 L601,135.556009 C601,139.714807 596.901613,142.949427 591.632258,142.949427 Z" id="Shape"></path>
                <path d="M397.642599,95.9643766 L362.357401,95.9643766 C357.288809,95.9643766 353,91.8628538 353,86.5894673 L353,29.3634589 C353,24.285383 357.093863,19.9885496 362.357401,19.9885496 L397.642599,19.9885496 C402.711191,19.9885496 407,24.0900724 407,29.3634589 L407,86.5894673 C407,91.8628538 402.906137,95.9643766 397.642599,95.9643766 Z" id="Shape"></path>
                <path d="M458.535211,142.949427 L449.464789,142.949427 C444.338028,142.949427 440,140.495663 440,137.340822 L440,94.5752082 C440,91.5372137 444.140845,88.9666031 449.464789,88.9666031 L458.535211,88.9666031 C463.661972,88.9666031 468,91.4203678 468,94.5752082 L468,137.340822 C468,140.495663 463.661972,142.949427 458.535211,142.949427 Z" id="Shape"></path>
                <path d="M767.852349,115.958015 L728.342282,115.958015 C723.281879,115.958015 719,111.830115 719,106.522815 L719,90.4043479 C719,85.2936144 723.087248,80.9691476 728.342282,80.9691476 L767.657718,80.9691476 C772.718121,80.9691476 777,85.0970477 777,90.4043479 L777,106.719382 C777,111.830115 772.912752,115.958015 767.852349,115.958015 Z" id="Shape"></path>
                <path d="M860.666667,78.9561517 L815.371429,78.9561517 C810.295238,78.9561517 806,74.8529118 806,69.5773175 L806,53.3597502 C806,48.2795483 810.1,43.980916 815.371429,43.980916 L860.666667,43.980916 C865.742857,43.980916 870.038095,48.084156 870.038095,53.3597502 L870.038095,69.5773175 C870.038095,74.6575194 865.938095,78.9561517 860.666667,78.9561517 Z" id="Shape"></path>
                <path d="M798.347619,3.99363868 L820.019048,3.99363868 C825.680952,3.99363868 830.366667,8.68305575 830.366667,14.3494347 L830.366667,24.1190536 C830.366667,29.7854326 825.680952,34.4748496 820.019048,34.4748496 L798.347619,34.4748496 C792.685714,34.4748496 788,29.7854326 788,24.1190536 L788,14.3494347 C788,8.68305575 792.685714,3.99363868 798.347619,3.99363868 Z" id="Shape"></path>
                <path d="M111.632258,143.949109 L9.36774194,143.949109 C4.29354839,143.949109 0,140.714489 0,136.555691 L0,49.3749702 C0,45.3702021 4.0983871,41.9815522 9.36774194,41.9815522 L111.632258,41.9815522 C116.706452,41.9815522 121,45.2161726 121,49.3749702 L121,136.555691 C121,140.714489 116.901613,143.949109 111.632258,143.949109 Z" id="Shape"></path>
                <path d="M270.666667,78.9561517 L225.371429,78.9561517 C220.295238,78.9561517 216,74.8529118 216,69.5773175 L216,53.3597502 C216,48.2795483 220.1,43.980916 225.371429,43.980916 L270.666667,43.980916 C275.742857,43.980916 280.038095,48.084156 280.038095,53.3597502 L280.038095,69.5773175 C280.038095,74.6575194 275.938095,78.9561517 270.666667,78.9561517 Z" id="Shape"></path>
                <path d="M208.347619,3.99363868 L230.019048,3.99363868 C235.680952,3.99363868 240.366667,8.68305575 240.366667,14.3494347 L240.366667,24.1190536 C240.366667,29.7854326 235.680952,34.4748496 230.019048,34.4748496 L208.347619,34.4748496 C202.685714,34.4748496 198,29.7854326 198,24.1190536 L198,14.3494347 C198,8.68305575 202.685714,3.99363868 208.347619,3.99363868 Z" id="Shape"></path>
                <path d="M1274.29493,115.958015 L1314.70507,115.958015 C1325.26267,115.958015 1334,118.880162 1334,122.41109 L1334,128.498897 C1334,132.029825 1325.26267,134.951972 1314.70507,134.951972 L1274.29493,134.951972 C1263.73733,134.951972 1255,132.029825 1255,128.498897 L1255,122.41109 C1255,118.880162 1263.73733,115.958015 1274.29493,115.958015 Z" id="Shape"></path>
            </g>
        </g>
    </g>
</svg>