<?xml version="1.0" encoding="UTF-8"?>
<svg width="910px" height="784px" viewBox="0 0 910 784" version="1.1" xmlns="http://www.w3.org/2000/svg" xmlns:xlink="http://www.w3.org/1999/xlink">
    <!-- Generator: Sketch 50.2 (55047) - http://www.bohemiancoding.com/sketch -->
    <title>logo_big_2</title>
    <desc>Created with Sketch.</desc>
    <defs></defs>
    <g id="Page-1" stroke="none" stroke-width="1" fill="none" fill-rule="evenodd" opacity="0.049999997">
        <g id="CSSSDM-log-in" transform="translate(-428.000000, -186.000000)" fill="#037286" fill-rule="nonzero">
            <g id="logo_big_2" transform="translate(428.000000, 186.000000)">
                <path d="M730,278 L569,278 C561.416667,278 555,271.776488 555,263.997097 L555,158.002903 C555,150.417997 561.222222,144 569,144 L730,144 C737.583333,144 744,150.223512 744,158.002903 L744,263.997097 C743.805556,271.582003 737.583333,278 730,278 Z" id="Shape" opacity="0.200000003"></path>
                <path d="M528.608696,301 L457.391304,301 C452.304348,301 448,296.896552 448,291.62069 L448,208.37931 C448,203.298851 452.108696,199 457.391304,199 L528.608696,199 C533.695652,199 538,203.103448 538,208.37931 L538,291.62069 C537.804348,296.701149 533.695652,301 528.608696,301 Z" id="Shape"></path>
                <path d="M697.637037,435 L558.362963,435 C553.291358,435 549,430.899582 549,425.627615 L549,304.372385 C549,299.295676 553.096296,295 558.362963,295 L697.637037,295 C702.708642,295 707,299.100418 707,304.372385 L707,425.627615 C706.804938,430.704324 702.708642,435 697.637037,435 Z" id="Shape" opacity="0.600000024"></path>
                <path d="M519.829268,391 L466.365854,391 C461.292683,391 457,386.902439 457,381.634146 L457,328.365854 C457,323.292683 461.097561,319 466.365854,319 L519.634146,319 C524.707317,319 529,323.097561 529,328.365854 L529,381.634146 C529,386.707317 524.902439,391 519.829268,391 Z" id="Shape"></path>
                <path d="M781.601399,255 L772.398601,255 C767.307692,255 763,250.909091 763,245.649351 L763,174.350649 C763,169.285714 767.111888,165 772.398601,165 L781.601399,165 C786.692308,165 791,169.090909 791,174.350649 L791,245.649351 C790.804196,250.909091 786.692308,255 781.601399,255 Z" id="Shape"></path>
                <path d="M865.670846,252 L822.329154,252 C817.275862,252 813,247.951807 813,242.746988 L813,229.253012 C813,224.240964 817.081505,220 822.329154,220 L865.670846,220 C870.724138,220 875,224.048193 875,229.253012 L875,242.746988 C875,247.759036 870.724138,252 865.670846,252 Z" id="Shape"></path>
                <path d="M829.695385,370 L785.304615,370 C780.264615,370 776,365.923529 776,360.682353 L776,280.317647 C776,275.270588 780.070769,271 785.304615,271 L829.695385,271 C834.735385,271 839,275.076471 839,280.317647 L839,360.682353 C838.806154,365.923529 834.735385,370 829.695385,370 Z" id="Shape" opacity="0.400000006"></path>
                <path d="M751.646154,320 L732.353846,320 C727.287179,320 723,315.94 723,310.72 L723,300.28 C723,295.253333 727.092308,291 732.353846,291 L751.646154,291 C756.712821,291 761,295.06 761,300.28 L761,310.72 C761,315.94 756.712821,320 751.646154,320 Z" id="Shape" opacity="0.600000024"></path>
                <path d="M753.579439,380 L730.420561,380 C725.317757,380 721,375.878505 721,370.579439 L721,347.420561 C721,342.317757 725.121495,338 730.420561,338 L753.579439,338 C758.682243,338 763,342.121495 763,347.420561 L763,370.579439 C762.803738,375.878505 758.682243,380 753.579439,380 Z" id="Shape"></path>
                <path d="M780.684211,494 L740.315789,494 C735.269737,494 731,489.923529 731,484.682353 L731,404.317647 C731,399.270588 735.075658,395 740.315789,395 L780.684211,395 C785.730263,395 790,399.076471 790,404.317647 L790,484.682353 C789.805921,489.729412 785.730263,494 780.684211,494 Z" id="Shape" opacity="0.400000006"></path>
                <path d="M511.688525,599 L459.311475,599 C454.26776,599 450,594.891304 450,589.608696 L450,554.391304 C450,549.304348 454.07377,545 459.311475,545 L511.688525,545 C516.73224,545 521,549.108696 521,554.391304 L521,589.608696 C521,594.695652 516.73224,599 511.688525,599 Z" id="Shape" opacity="0.600000024"></path>
                <path d="M587,595.226519 L587,550.773481 C587,548.187845 582.873362,546 577.567686,546 L551.432314,546 C546.323144,546 542,548.088398 542,550.773481 L542,595.226519 C542,597.812155 546.126638,600 551.432314,600 L577.567686,600 C582.676856,599.900552 587,597.812155 587,595.226519 Z" id="Shape" opacity="0.400000006"></path>
                <path d="M635,606 L635,553 C635,548.666667 630.916667,545 625.666667,545 L609.333333,545 C604.277778,545 600,548.5 600,553 L600,606 C600,610.333333 604.083333,614 609.333333,614 L625.666667,614 C630.722222,614 635,610.5 635,606 Z" id="Shape"></path>
                <path d="M477.666667,715 L419.333333,715 C414.277778,715 410,710.950673 410,705.744395 L410,681.255605 C410,676.242152 414.083333,672 419.333333,672 L477.666667,672 C482.722222,672 487,676.049327 487,681.255605 L487,705.744395 C487,710.757848 482.916667,715 477.666667,715 Z" id="Shape" opacity="0.600000024"></path>
                <path d="M380.622108,699 L323.377892,699 C318.298201,699 314,694.944828 314,689.731034 L314,680.268966 C314,675.248276 318.102828,671 323.377892,671 L380.622108,671 C385.701799,671 390,675.055172 390,680.268966 L390,689.731034 C389.804627,694.751724 385.701799,699 380.622108,699 Z" id="Shape"></path>
                <path d="M423.62069,610 L323.37931,610 C318.298851,610 314,608.022422 314,605.479821 L314,572.520179 C314,570.071749 318.103448,568 323.37931,568 L423.62069,568 C428.701149,568 433,569.977578 433,572.520179 L433,605.479821 C433,608.022422 428.701149,610 423.62069,610 Z" id="Shape" opacity="0.5"></path>
                <path d="M436.755556,784 L429.244444,784 C424.237037,784 420,779.928571 420,774.693878 L420,755.306122 C420,750.265306 424.044444,746 429.244444,746 L436.755556,746 C441.762963,746 446,750.071429 446,755.306122 L446,774.693878 C446,779.928571 441.955556,784 436.755556,784 Z" id="Shape"></path>
                <path d="M283.588235,605 L222.411765,605 C217.313725,605 213,600.947368 213,595.736842 L213,581.263158 C213,576.245614 217.117647,572 222.411765,572 L283.588235,572 C288.686275,572 293,576.052632 293,581.263158 L293,595.736842 C293,600.947368 288.686275,605 283.588235,605 Z" id="Shape"></path>
                <path d="M281.64,553 L222.36,553 C217.29,553 213,548.903643 213,543.636898 L213,396.363102 C213,391.291422 217.095,387 222.36,387 L281.64,387 C286.71,387 291,391.096357 291,396.363102 L291,543.636898 C291,548.708578 286.71,553 281.64,553 Z" id="Shape" opacity="0.200000003"></path>
                <path d="M187.7,566 L144.3,566 C139.2625,566 135,561.890485 135,556.606822 L135,466.393178 C135,461.305206 139.06875,457 144.3,457 L187.7,457 C192.7375,457 197,461.109515 197,466.393178 L197,556.606822 C196.80625,561.890485 192.7375,566 187.7,566 Z" id="Shape" opacity="0.400000006"></path>
                <path d="M181.642202,444 L115.357798,444 C110.288991,444 106,439.928571 106,434.693878 L106,396.306122 C106,391.265306 110.094037,387 115.357798,387 L181.642202,387 C186.711009,387 191,391.071429 191,396.306122 L191,434.693878 C190.805046,439.734694 186.711009,444 181.642202,444 Z" id="Shape" opacity="0.5"></path>
                <path d="M83.7692308,434 L72.2307692,434 C67.2307692,434 63,429.929515 63,424.696035 L63,399.303965 C63,394.264317 67.0384615,390 72.2307692,390 L83.7692308,390 C88.7692308,390 93,394.070485 93,399.303965 L93,424.696035 C92.8076923,429.929515 88.7692308,434 83.7692308,434 Z" id="Shape"></path>
                <path d="M418.99095,371 L275.00905,371 C267.420814,371 261,364.749775 261,356.936994 L261,168.063006 C261,160.445545 267.226244,154 275.00905,154 L418.99095,154 C426.579186,154 433,160.250225 433,168.063006 L433,356.936994 C433,364.554455 426.579186,371 418.99095,371 Z" id="Shape"></path>
                <path d="M326.019417,141 L273.980583,141 C266.407767,141 260,134.797753 260,127.044944 L260,85.9550562 C260,78.3960674 266.213592,72 273.980583,72 L326.019417,72 C333.592233,72 340,78.2022472 340,85.9550562 L340,127.044944 C339.805825,134.797753 333.592233,141 326.019417,141 Z" id="Shape" opacity="0.5"></path>
                <path d="M382.686567,142 L362.313433,142 C357.268657,142 353,137.94 353,132.72 L353,122.28 C353,117.253333 357.074627,113 362.313433,113 L382.686567,113 C387.731343,113 392,117.06 392,122.28 L392,132.72 C392,137.94 387.731343,142 382.686567,142 Z" id="Shape"></path>
                <path d="M238.644068,114 L211.355932,114 C206.288136,114 202,109.875 202,104.571429 L202,57.4285714 C202,52.3214286 206.09322,48 211.355932,48 L238.644068,48 C243.711864,48 248,52.125 248,57.4285714 L248,104.571429 C248,109.875 243.90678,114 238.644068,114 Z" id="Shape"></path>
                <path d="M238.632258,257 L136.367742,257 C131.293548,257 127,252.907855 127,247.646526 L127,137.353474 C127,132.287009 131.098387,128 136.367742,128 L238.632258,128 C243.706452,128 248,132.092145 248,137.353474 L248,247.646526 C248,252.907855 243.901613,257 238.632258,257 Z" id="Shape" opacity="0.300000012"></path>
                <path d="M238.640927,370 L156.359073,370 C151.289575,370 147,365.905405 147,360.640927 L147,278.359073 C147,273.289575 151.094595,269 156.359073,269 L238.640927,269 C243.710425,269 248,273.094595 248,278.359073 L248,360.640927 C248,365.710425 243.905405,370 238.640927,370 Z" id="Shape"></path>
                <path d="M124.649351,373 L68.3506494,373 C63.2857143,373 59,368.886598 59,363.597938 L59,287.402062 C59,282.309278 63.0909091,278 68.3506494,278 L124.649351,278 C129.714286,278 134,282.113402 134,287.402062 L134,363.597938 C134,368.690722 129.714286,373 124.649351,373 Z" id="Shape" opacity="0.300000012"></path>
                <path d="M44.6425993,182 L9.35740072,182 C4.28880866,182 0,177.897172 0,172.622108 L0,115.377892 C0,110.298201 4.09386282,106 9.35740072,106 L44.6425993,106 C49.7111913,106 54,110.102828 54,115.377892 L54,172.622108 C54,177.897172 49.9061372,182 44.6425993,182 Z" id="Shape" opacity="0.5"></path>
                <path d="M105.535211,265 L96.4647887,265 C91.3380282,265 87,260.909091 87,255.649351 L87,184.350649 C87,179.285714 91.1408451,175 96.4647887,175 L105.535211,175 C110.661972,175 115,179.090909 115,184.350649 L115,255.649351 C115,260.909091 110.661972,265 105.535211,265 Z" id="Shape"></path>
                <path d="M64.852349,266 L25.3422819,266 C20.2818792,266 16,261.870787 16,256.561798 L16,240.438202 C16,235.325843 20.0872483,231 25.3422819,231 L64.6577181,231 C69.7181208,231 74,235.129213 74,240.438202 L74,256.758427 C74,261.870787 69.9127517,266 64.852349,266 Z" id="Shape"></path>
                <path d="M721.66863,129 L608.33137,129 C603.276878,129 599,124.924342 599,119.684211 L599,79.3157895 C599,74.2697368 603.082474,70 608.33137,70 L721.66863,70 C726.723122,70 731,74.0756579 731,79.3157895 L731,119.684211 C731,124.730263 726.723122,129 721.66863,129 Z" id="Shape"></path>
                <path d="M524.660633,444 L457.339367,444 C452.280543,444 448,439.961538 448,434.769231 L448,418.230769 C448,413.230769 452.085973,409 457.339367,409 L524.660633,409 C529.719457,409 534,413.038462 534,418.230769 L534,434.769231 C534,439.769231 529.719457,444 524.660633,444 Z" id="Shape" opacity="0.5"></path>
                <path d="M698.956656,516 L664.043344,516 C656.436533,516 650,509.758514 650,501.956656 L650,467.043344 C650,459.436533 656.241486,453 664.043344,453 L698.956656,453 C706.563467,453 713,459.241486 713,467.043344 L713,501.956656 C712.804954,509.563467 706.563467,516 698.956656,516 Z" id="Shape"></path>
                <path d="M624.936726,530 L511.063274,530 C503.445667,530 497,523.766234 497,515.974026 L497,469.025974 C497,461.428571 503.250344,455 511.063274,455 L624.936726,455 C632.554333,455 639,461.233766 639,469.025974 L639,515.974026 C638.804677,523.766234 632.554333,530 624.936726,530 Z" id="Shape" opacity="0.200000003"></path>
                <path d="M476.679612,532 L455.320388,532 C450.271845,532 446,527.926952 446,522.690176 L446,464.309824 C446,459.267003 450.07767,455 455.320388,455 L476.679612,455 C481.728155,455 486,459.073048 486,464.309824 L486,522.690176 C486,527.926952 481.92233,532 476.679612,532 Z" id="Shape"></path>
                <path d="M144.666667,94.9863636 L99.3714286,94.9863636 C94.2952381,94.9863636 90,90.8818182 90,85.6045455 L90,69.3818182 C90,64.3 94.1,60 99.3714286,60 L144.666667,60 C149.742857,60 154.038095,64.1045455 154.038095,69.3818182 L154.038095,85.6045455 C154.038095,90.6863636 149.938095,94.9863636 144.666667,94.9863636 Z" id="Shape"></path>
                <path d="M42.347619,10 L64.0190476,10 C69.6809524,10 74.3666667,14.6909091 74.3666667,20.3590909 L74.3666667,30.1318182 C74.3666667,35.8 69.6809524,40.4909091 64.0190476,40.4909091 L42.347619,40.4909091 C36.6857143,40.4909091 32,35.8 32,30.1318182 L32,20.3590909 C32,14.6909091 36.6857143,10 42.347619,10 Z" id="Shape"></path>
                <path d="M177.752033,34.9863636 L121.614634,34.9863636 C115.323374,34.9863636 110,30.8818182 110,25.6045455 L110,9.38181818 C110,4.3 115.081402,1.0658141e-13 121.614634,1.0658141e-13 L177.752033,1.0658141e-13 C184.043293,1.0658141e-13 189.366667,4.10454545 189.366667,9.38181818 L189.366667,25.6045455 C189.366667,30.6863636 184.285264,34.9863636 177.752033,34.9863636 Z" id="Shape" opacity="0.200000003"></path>
                <path d="M849.384485,162 L889.982181,162 C900.588786,162 909.366667,167.382517 909.366667,173.886393 L909.366667,185.099971 C909.366667,191.603846 900.588786,196.986364 889.982181,196.986364 L849.384485,196.986364 C838.77788,196.986364 830,191.603846 830,185.099971 L830,173.886393 C830,167.382517 838.77788,162 849.384485,162 Z" id="Shape" opacity="0.200000003"></path>
                <path d="M409.33777,551 L331.66223,551 C320.760399,551 312,542.199262 312,531.247232 L312,411.752768 C312,400.800738 320.760399,392 331.66223,392 L409.33777,392 C420.239601,392 429,400.800738 429,411.752768 L429,531.247232 C429,542.00369 420.044925,551 409.33777,551 Z" id="Shape" opacity="0.400000006"></path>
            </g>
        </g>
    </g>
</svg>