<?xml version="1.0" encoding="UTF-8"?>
<svg viewBox="0 0 356 304" version="1.1" xmlns="http://www.w3.org/2000/svg" xmlns:xlink="http://www.w3.org/1999/xlink">
    <!-- Generator: Sketch 50.2 (55047) - http://www.bohemiancoding.com/sketch -->
    <title>img left</title>
    <desc>Created with Sketch.</desc>
    <defs></defs>
    <g id="Page-1" stroke="none" stroke-width="1" fill="none" fill-rule="evenodd">
        <g id="Help-Mentoring" transform="translate(-107.000000, -2123.000000)" fill="#FFFFFF" fill-rule="nonzero">
            <g id="img-left" transform="translate(73.000000, 2101.000000)">
                <g id="lightbulb" opacity="0.0700000003" transform="translate(152.503770, 165.765741) scale(-1, 1) rotate(34.000000) translate(-152.503770, -165.765741) translate(50.503770, 44.265741)">
                    <path d="M102,53 C67.3273381,53 39,81.1444099 39,115.593168 C39,133.60559 46.9316547,150.942547 60.3021583,162.650621 C70.2733813,172.557453 69.3669065,193.72205 69.1402878,193.947205 C69.1402878,195.072981 69.3669065,195.973602 70.2733813,196.874224 C70.9532374,197.549689 72.0863309,198 72.9928058,198 L130.780576,198 C131.913669,198 132.820144,197.549689 133.5,196.874224 C134.179856,196.198758 134.633094,195.072981 134.633094,193.947205 C134.633094,193.72205 133.5,172.557453 143.471223,162.650621 C143.697842,162.425466 143.92446,162.200311 144.151079,161.975155 C157.294964,150.041925 165,133.15528 165,115.593168 C165,81.1444099 136.672662,53 102,53 Z M138.258993,156.796584 C138.032374,157.021739 137.579137,157.47205 137.579137,157.697205 C128.741007,167.153727 127.154676,182.689441 126.928058,190.119565 L76.8453237,190.119565 C76.618705,182.689441 75.0323741,166.478261 65.5143885,156.796584 C53.5035971,146.439441 46.4784173,131.354037 46.4784173,115.368012 C46.4784173,84.9720497 71.1798561,60.4301242 101.773381,60.4301242 C132.366906,60.4301242 157.068345,84.9720497 157.068345,115.368012 C157.068345,131.354037 150.269784,146.439441 138.258993,156.796584 Z" id="Shape"></path>
                    <path d="M101.866826,67 C99.8196826,67 98,68.8197425 98,70.8669528 C98,72.9141631 99.8196826,74.7339056 101.866826,74.7339056 C124.840319,74.7339056 143.264606,93.3862661 143.264606,116.133047 C143.264606,118.180258 145.084288,120 147.131431,120 C149.178574,120 150.998257,118.180258 150.998257,116.133047 C151.225717,89.0643777 129.162065,67 101.866826,67 Z" id="Shape"></path>
                    <path d="M127.392157,201 L76.6078431,201 C71.3464052,201 67,205.52381 67,211 C67,216.47619 71.3464052,221 76.6078431,221 L127.163399,221 C132.653595,220.761905 137,216.47619 137,211 C137,205.52381 132.653595,201 127.392157,201 Z M127.392157,212.666667 L76.6078431,212.666667 C75.6928105,212.666667 74.7777778,211.952381 74.7777778,210.761905 C74.7777778,209.571429 75.4640523,208.857143 76.6078431,208.857143 L127.163399,208.857143 C128.078431,208.857143 128.993464,209.571429 128.993464,210.761905 C128.993464,211.952381 128.30719,212.666667 127.392157,212.666667 Z" id="Shape"></path>
                    <path d="M118.725,223 L84.275,223 C79.1958333,223 75,227.52381 75,233 C75,238.47619 79.1958333,243 84.275,243 L118.725,243 C123.804167,243 128,238.47619 128,233 C128,227.285714 123.804167,223 118.725,223 Z M118.725,234.666667 L84.275,234.666667 C83.3916667,234.666667 82.5083333,233.952381 82.5083333,232.761905 C82.5083333,231.571429 83.1708333,230.857143 84.275,230.857143 L118.725,230.857143 C119.608333,230.857143 120.491667,231.571429 120.491667,232.761905 C120.491667,233.952381 119.608333,234.666667 118.725,234.666667 Z" id="Shape"></path>
                    <path d="M102,34 C104.352941,34 106,32.1866667 106,30.1466667 L106,3.85333333 C106,1.81333333 104.117647,0 102,0 C99.8823529,0 98,1.81333333 98,3.85333333 L98,30.1466667 C98,32.1866667 99.8823529,34 102,34 Z" id="Shape"></path>
                    <path d="M165.318482,20.6917435 C163.522148,19.4015897 161.276731,20.0466666 160.154022,21.5518461 L145.783351,42.1943077 C144.436101,43.9145128 144.885184,46.2797949 146.681518,47.3549231 C147.355143,47.7849744 148.028769,48 148.702394,48 C150.049644,48 151.172353,47.3549231 151.845978,46.2797949 L166.216649,25.6373333 C167.563899,24.1321538 167.114816,21.7668717 165.318482,20.6917435 Z" id="Shape"></path>
                    <path d="M57.1849265,48 C57.8692052,48 58.5534839,47.7646629 59.2377626,47.2939888 C61.0625059,46.1173036 61.5186917,43.528596 60.3782272,41.6458996 L46.2364671,18.8182054 C45.0960026,16.935509 42.5869806,16.4648349 40.7622374,17.6415201 C38.9374941,18.8182054 38.4813083,21.406913 39.6217728,23.2896094 L53.7635329,46.1173036 C54.6759045,47.5293259 55.8163691,48 57.1849265,48 Z" id="Shape"></path>
                    <path d="M28.9900866,71.7898736 L5.82712819,59.3974688 C3.99243841,58.496203 1.46973997,59.1721523 0.552395086,60.9746839 C-0.594286023,62.7772155 0.0937226424,65.2556965 2.15774864,66.1569623 L25.3207071,78.5493671 C26.0087157,78.7746835 26.4673882,79 27.1553968,79 C28.5314142,79 29.9074315,78.3240506 30.5954402,76.9721519 C31.512785,75.1696203 30.8247764,72.6911394 28.9900866,71.7898736 Z" id="Shape"></path>
                    <path d="M203.596501,60.9746839 C202.681562,59.1721523 200.165478,58.496203 198.335599,59.3974688 L175.004643,71.7898736 C173.174764,72.6911394 172.48856,75.1696203 173.403499,76.9721519 C174.089704,78.3240506 175.462113,79 176.834522,79 C177.520727,79 178.206931,78.7746835 178.664401,78.5493671 L201.995357,66.1569623 C203.825236,65.2556965 204.51144,62.7772155 203.596501,60.9746839 Z" id="Shape"></path>
                </g>
                <g id="lightbulb" opacity="0.100000001" transform="translate(339.725238, 105.368141) scale(-1, 1) rotate(25.000000) translate(-339.725238, -105.368141) translate(269.725238, 21.868141)">
                    <path d="M69.9110325,36.3263208 C46.146311,36.3263208 26.7306889,55.6165635 26.7306889,79.2278206 C26.7306889,91.573576 32.1670631,103.456366 41.3312367,111.481106 C48.1655357,118.271272 47.5442358,132.777534 47.3889108,132.931856 C47.3889108,133.703466 47.5442358,134.320754 48.1655357,134.938042 C48.6315107,135.401007 49.4081355,135.709651 50.0294355,135.709651 L89.6373046,135.709651 C90.4139295,135.709651 91.0352294,135.401007 91.5012043,134.938042 C91.9671792,134.475076 92.2778292,133.703466 92.2778292,132.931856 C92.2778292,132.777534 91.5012043,118.271272 98.3355033,111.481106 C98.4908283,111.326785 98.6461533,111.172463 98.8014782,111.018141 C107.810327,102.839078 113.091376,91.2649321 113.091376,79.2278206 C113.091376,55.6165635 93.675754,36.3263208 69.9110325,36.3263208 Z M94.7630288,107.468736 C94.6077039,107.623058 94.2970539,107.931702 94.2970539,108.086024 C88.2393798,114.567545 87.152105,125.215759 86.99678,130.308383 L52.6699601,130.308383 C52.5146351,125.215759 51.4273602,114.104579 44.9037112,107.468736 C36.6714874,100.369927 31.8564131,90.0303566 31.8564131,79.0734987 C31.8564131,58.2400366 48.7868356,41.4189449 69.7557075,41.4189449 C90.7245794,41.4189449 107.655002,58.2400366 107.655002,79.0734987 C107.655002,90.0303566 102.995253,100.369927 94.7630288,107.468736 Z" id="Shape"></path>
                    <path d="M69.8197545,45.9219527 C68.416638,45.9219527 67.1694234,47.1692084 67.1694234,48.572371 C67.1694234,49.9755336 68.416638,51.2227892 69.8197545,51.2227892 C85.5658392,51.2227892 98.1938873,64.0071597 98.1938873,79.5978553 C98.1938873,81.0010179 99.441102,82.2482735 100.844218,82.2482735 C102.247335,82.2482735 103.49455,81.0010179 103.49455,79.5978553 C103.650451,61.0449275 88.527974,45.9219527 69.8197545,45.9219527 Z" id="Shape"></path>
                    <path d="M87.3148747,137.765858 L52.5071903,137.765858 C48.9009888,137.765858 45.9219527,140.866488 45.9219527,144.619881 C45.9219527,148.373274 48.9009888,151.473904 52.5071903,151.473904 L87.1580833,151.473904 C90.9210762,151.310713 93.9001123,148.373274 93.9001123,144.619881 C93.9001123,140.866488 90.9210762,137.765858 87.3148747,137.765858 Z M87.3148747,145.762218 L52.5071903,145.762218 C51.8800248,145.762218 51.2528593,145.272645 51.2528593,144.45669 C51.2528593,143.640735 51.7232335,143.151162 52.5071903,143.151162 L87.1580833,143.151162 C87.7852488,143.151162 88.4124143,143.640735 88.4124143,144.45669 C88.4124143,145.272645 87.9420402,145.762218 87.3148747,145.762218 Z" id="Shape"></path>
                    <path d="M81.3743856,152.844708 L57.7622771,152.844708 C54.2810047,152.844708 51.405171,155.945338 51.405171,159.698731 C51.405171,163.452125 54.2810047,166.552754 57.7622771,166.552754 L81.3743856,166.552754 C84.8556581,166.552754 87.7314918,163.452125 87.7314918,159.698731 C87.7314918,155.782147 84.8556581,152.844708 81.3743856,152.844708 Z M81.3743856,160.841068 L57.7622771,160.841068 C57.1568384,160.841068 56.5513997,160.351495 56.5513997,159.53554 C56.5513997,158.719585 57.0054788,158.230012 57.7622771,158.230012 L81.3743856,158.230012 C81.9798243,158.230012 82.585263,158.719585 82.585263,159.53554 C82.585263,160.351495 81.9798243,160.841068 81.3743856,160.841068 Z" id="Shape"></path>
                    <path d="M69.9110325,23.3036775 C71.5237438,23.3036775 72.6526416,22.0608147 72.6526416,20.6625941 L72.6526416,2.64108345 C72.6526416,1.2428628 71.3624726,0 69.9110325,0 C68.4595924,0 67.1694234,1.2428628 67.1694234,2.64108345 L67.1694234,20.6625941 C67.1694234,22.0608147 68.4595924,23.3036775 69.9110325,23.3036775 Z" id="Shape"></path>
                    <path d="M113.309664,14.1821682 C112.078453,13.2978938 110.539439,13.740031 109.769932,14.7716844 L99.9202412,28.9200747 C98.9968327,30.0991072 99.3046356,31.7202769 100.535847,32.4571722 C100.997551,32.7519304 101.459255,32.8993094 101.92096,32.8993094 C102.844368,32.8993094 103.613875,32.4571722 104.075579,31.7202769 L113.92527,17.5718867 C114.848678,16.5402332 114.540876,14.9190635 113.309664,14.1821682 Z" id="Shape"></path>
                    <path d="M39.194679,32.8993094 C39.6636852,32.8993094 40.1326914,32.7380089 40.6016975,32.4154078 C41.8523807,31.608905 42.1650515,29.8345989 41.3833745,28.5441945 L31.6905799,12.8980409 C30.9089029,11.6076364 29.1892136,11.2850353 27.9385304,12.0915381 C26.6878472,12.8980409 26.3751764,14.672347 27.1568534,15.9627514 L36.849648,31.608905 C37.4749896,32.5767083 38.2566666,32.8993094 39.194679,32.8993094 Z" id="Shape"></path>
                    <path d="M19.8698714,49.204943 L3.99392694,40.7111605 C2.73642639,40.0934309 1.00736313,40.5567281 0.378612851,41.7921874 C-0.407324995,43.0276466 0.0642377128,44.7264031 1.47892584,45.3441328 L17.3548703,53.8379153 C17.826433,53.9923477 18.1408082,54.1467801 18.6123709,54.1467801 C19.5554963,54.1467801 20.4986217,53.6834829 20.9701844,52.7568884 C21.5989347,51.5214291 21.127372,49.8226726 19.8698714,49.204943 Z" id="Shape"></path>
                    <path d="M139.545506,41.7921874 C138.918404,40.5567281 137.193875,40.0934309 135.939672,40.7111605 L119.948581,49.204943 C118.694378,49.8226726 118.224052,51.5214291 118.851154,52.7568884 C119.32148,53.6834829 120.262132,54.1467801 121.202784,54.1467801 C121.673111,54.1467801 122.143437,53.9923477 122.456988,53.8379153 L138.448078,45.3441328 C139.702281,44.7264031 140.172607,43.0276466 139.545506,41.7921874 Z" id="Shape"></path>
                </g>
                <g id="lightbulb" opacity="0.149999991" transform="translate(326.245508, 280.403691) scale(-1, 1) rotate(30.000000) translate(-326.245508, -280.403691) translate(285.245508, 231.903691)">
                    <path d="M40.6954588,21.1456795 C26.8619305,21.1456795 15.5600283,32.3745979 15.5600283,46.118794 C15.5600283,53.3053018 18.724561,60.2223155 24.0590588,64.8935455 C28.0373283,68.8461248 27.6756675,77.2902714 27.5852522,77.3801027 C27.5852522,77.8292595 27.6756675,78.1885849 28.0373283,78.5479103 C28.308574,78.8174043 28.7606501,78.997067 29.1223109,78.997067 L52.1781914,78.997067 C52.6302674,78.997067 52.9919283,78.8174043 53.263174,78.5479103 C53.5344196,78.2784162 53.71525,77.8292595 53.71525,77.3801027 C53.71525,77.2902714 53.263174,68.8461248 57.2414435,64.8935455 C57.3318587,64.8037142 57.422274,64.7138828 57.5126892,64.6240515 C62.7567718,59.8629901 65.8308892,53.1256391 65.8308892,46.118794 C65.8308892,32.3745979 54.528987,21.1456795 40.6954588,21.1456795 Z M55.1618935,62.5579305 C55.0714783,62.6477618 54.8906479,62.8274245 54.8906479,62.9172559 C51.3644544,66.6901725 50.7315479,72.8885354 50.6411327,75.8529699 L30.6593696,75.8529699 C30.5689544,72.8885354 29.9360479,66.4206784 26.1386088,62.5579305 C21.3466023,58.4256885 18.5437305,52.4069883 18.5437305,46.0289627 C18.5437305,33.9017308 28.3989892,24.110114 40.6050435,24.110114 C52.8110979,24.110114 62.6663566,33.9017308 62.6663566,46.0289627 C62.6663566,52.4069883 59.9539,58.4256885 55.1618935,62.5579305 Z" id="Shape"></path>
                    <path d="M40.6423255,26.7313308 C39.8255664,26.7313308 39.0995584,27.4573627 39.0995584,28.2741486 C39.0995584,29.0909345 39.8255664,29.8169664 40.6423255,29.8169664 C49.808177,29.8169664 57.1590084,37.2587935 57.1590084,46.3341925 C57.1590084,47.1509784 57.8850164,47.8770103 58.7017754,47.8770103 C59.5185345,47.8770103 60.2445425,47.1509784 60.2445425,46.3341925 C60.3352935,35.5344677 51.5324461,26.7313308 40.6423255,26.7313308 Z" id="Shape"></path>
                    <path d="M50.8262967,80.1939923 L30.5646208,80.1939923 C28.4654381,80.1939923 26.7313308,81.9988795 26.7313308,84.1837431 C26.7313308,86.3686067 28.4654381,88.173494 30.5646208,88.173494 L50.7350279,88.173494 C52.9254794,88.0784999 54.6595868,86.3686067 54.6595868,84.1837431 C54.6595868,81.9988795 52.9254794,80.1939923 50.8262967,80.1939923 Z M50.8262967,84.8487016 L30.5646208,84.8487016 C30.1995455,84.8487016 29.8344703,84.5637194 29.8344703,84.088749 C29.8344703,83.6137787 30.1082767,83.3287965 30.5646208,83.3287965 L50.7350279,83.3287965 C51.1001031,83.3287965 51.4651784,83.6137787 51.4651784,84.088749 C51.4651784,84.5637194 51.191372,84.8487016 50.8262967,84.8487016 Z" id="Shape"></path>
                    <path d="M47.3683171,88.9714441 L33.6236254,88.9714441 C31.5971644,88.9714441 29.9231314,90.7763314 29.9231314,92.961195 C29.9231314,95.1460586 31.5971644,96.9509459 33.6236254,96.9509459 L47.3683171,96.9509459 C49.394778,96.9509459 51.068811,95.1460586 51.068811,92.961195 C51.068811,90.6813374 49.394778,88.9714441 47.3683171,88.9714441 Z M47.3683171,93.6261535 L33.6236254,93.6261535 C33.2711974,93.6261535 32.9187694,93.3411713 32.9187694,92.8662009 C32.9187694,92.3912306 33.1830904,92.1062484 33.6236254,92.1062484 L47.3683171,92.1062484 C47.7207451,92.1062484 48.073173,92.3912306 48.073173,92.8662009 C48.073173,93.3411713 47.7207451,93.6261535 47.3683171,93.6261535 Z" id="Shape"></path>
                    <path d="M40.6954588,13.5651529 C41.6342237,13.5651529 42.2913591,12.8416781 42.2913591,12.0277689 L42.2913591,1.537384 C42.2913591,0.723474822 41.5403472,0 40.6954588,0 C39.8505703,0 39.0995584,0.723474822 39.0995584,1.537384 L39.0995584,12.0277689 C39.0995584,12.8416781 39.8505703,13.5651529 40.6954588,13.5651529 Z" id="Shape"></path>
                    <path d="M65.9579555,8.25549014 C65.241263,7.7407509 64.3453975,7.99812052 63.8974647,8.59864964 L58.163925,16.8344775 C57.6264057,17.5207965 57.8055788,18.4644851 58.5222713,18.8934345 C58.7910309,19.0650142 59.0597906,19.1508041 59.3285503,19.1508041 C59.8660696,19.1508041 60.3140024,18.8934345 60.5827621,18.4644851 L66.3163017,10.2286572 C66.8538211,9.62812812 66.674648,8.68443951 65.9579555,8.25549014 Z" id="Shape"></path>
                    <path d="M22.815361,19.1508041 C23.0883711,19.1508041 23.3613813,19.0569105 23.6343914,18.8691233 C24.3624185,18.3996552 24.5444253,17.3668253 24.0894084,16.6156764 L18.4471984,7.50799511 C17.9921815,6.75684614 16.9911442,6.5690589 16.2631172,7.03852701 C15.5350901,7.50799511 15.3530833,8.54082494 15.8081002,9.29197391 L21.4503102,18.3996552 C21.8143237,18.9630169 22.2693406,19.1508041 22.815361,19.1508041 Z" id="Shape"></path>
                    <path d="M11.5663223,28.642371 L2.32487897,23.6981102 C1.59288346,23.3385276 0.586389632,23.6082146 0.220391877,24.3273798 C-0.237105317,25.046545 0.0373929993,26.0353971 0.860887949,26.3949797 L10.1023313,31.3392405 C10.3768296,31.4291361 10.5598285,31.5190318 10.8343268,31.5190318 C11.3833234,31.5190318 11.93232,31.2493448 12.2068184,30.7099709 C12.5728161,29.9908057 12.2983178,29.0019536 11.5663223,28.642371 Z" id="Shape"></path>
                    <path d="M81.2299315,24.3273798 C80.8648934,23.6082146 79.8610388,23.3385276 79.1309627,23.6981102 L69.8224925,28.642371 C69.0924164,29.0019536 68.8186379,29.9908057 69.1836759,30.7099709 C69.4574544,31.2493448 70.0050115,31.5190318 70.5525686,31.5190318 C70.8263471,31.5190318 71.1001257,31.4291361 71.2826447,31.3392405 L80.5911149,26.3949797 C81.321191,26.0353971 81.5949695,25.046545 81.2299315,24.3273798 Z" id="Shape"></path>
                </g>
            </g>
        </g>
    </g>
</svg>