<?xml version="1.0" encoding="iso-8859-1"?>
<!-- Generator: Adobe Illustrator 19.0.0, SVG Export Plug-In . SVG Version: 6.00 Build 0)  -->
<svg xmlns="http://www.w3.org/2000/svg" xmlns:xlink="http://www.w3.org/1999/xlink" version="1.1" id="Capa_1" x="0px" y="0px" viewBox="0 0 511.999 511.999" style="enable-background:new 0 0 511.999 511.999;" xml:space="preserve">
<g>
	<g>
		<path d="M443.255,397.403V64.439C443.255,28.907,414.348,0,378.816,0H70.153C34.621,0,5.714,28.907,5.714,64.439v50.157h98.878    V447.56c0,35.532,28.907,64.439,64.439,64.439h272.815c35.532,0,64.439-28.907,64.439-64.439v-50.157H443.255z M104.592,84.597    H35.714V64.439C35.714,45.449,51.163,30,70.153,30s34.439,15.449,34.439,34.439V84.597z M203.47,447.561    c0,18.99-15.449,34.439-34.439,34.439s-34.439-15.449-34.439-34.439V64.439c0-12.66-3.685-24.469-10.016-34.439h254.24    c18.989,0,34.438,15.449,34.438,34.439v332.964H203.47V447.561z M476.286,447.561c0,18.99-15.449,34.439-34.439,34.439H223.475    c6.328-9.969,9.995-21.783,9.995-34.439v-20.157h242.816V447.561z" fill="#FFFFFF"/>
	</g>
</g>
<g>
	<g>
		<rect x="164.59" y="98.88" width="218.66" height="30" fill="#FFFFFF"/>
	</g>
</g>
<g>
	<g>
		<rect x="164.59" y="166.99" width="218.66" height="30" fill="#FFFFFF"/>
	</g>
</g>
<g>
	<g>
		<path d="M273.924,235.105c-29.649,0-53.771,24.121-53.771,53.771c0,24.443,16.4,45.115,38.771,51.626v28.052h30v-28.052    c22.37-6.511,38.771-27.182,38.771-51.626C327.694,259.227,303.573,235.105,273.924,235.105z M273.924,312.646    c-13.107,0-23.771-10.663-23.771-23.771c0-13.108,10.664-23.771,23.771-23.771s23.771,10.663,23.771,23.771    C297.695,301.983,287.031,312.646,273.924,312.646z" fill="#FFFFFF"/>
	</g>
</g>
<g>
</g>
<g>
</g>
<g>
</g>
<g>
</g>
<g>
</g>
<g>
</g>
<g>
</g>
<g>
</g>
<g>
</g>
<g>
</g>
<g>
</g>
<g>
</g>
<g>
</g>
<g>
</g>
<g>
</g>
</svg>
