<?xml version="1.0" encoding="UTF-8"?>
<svg width="224px" height="267px" viewBox="0 0 224 267" version="1.1" xmlns="http://www.w3.org/2000/svg" xmlns:xlink="http://www.w3.org/1999/xlink">
    <!-- Generator: Sketch 50.2 (55047) - http://www.bohemiancoding.com/sketch -->
    <title>lightbulb</title>
    <desc>Created with Sketch.</desc>
    <defs></defs>
    <g id="Page-1" stroke="none" stroke-width="1" fill="none" fill-rule="evenodd">
        <g id="Help-Mentoring" transform="translate(-530.000000, -2171.000000)" fill="#FFFFFF" fill-rule="nonzero">
            <g id="lightbulb" transform="translate(642.000000, 2304.500000) scale(-1, 1) translate(-642.000000, -2304.500000) translate(530.000000, 2171.000000)">
                <path d="M112,58 C74.0251799,58 43,89.0559006 43,127.068323 C43,146.944099 51.6870504,166.074534 66.3309353,178.993789 C77.2517986,189.925466 76.2589928,213.279503 76.0107914,213.52795 C76.0107914,214.770186 76.2589928,215.763975 77.2517986,216.757764 C77.9964029,217.503106 79.2374101,218 80.2302158,218 L143.521583,218 C144.76259,218 145.755396,217.503106 146.5,216.757764 C147.244604,216.012422 147.741007,214.770186 147.741007,213.52795 C147.741007,213.279503 146.5,189.925466 157.420863,178.993789 C157.669065,178.745342 157.917266,178.496894 158.165468,178.248447 C172.561151,165.080745 181,146.447205 181,127.068323 C181,89.0559006 149.97482,58 112,58 Z M151.71223,172.534161 C151.464029,172.782609 150.967626,173.279503 150.967626,173.52795 C141.28777,183.962733 139.55036,201.10559 139.302158,209.304348 L84.4496403,209.304348 C84.2014388,201.10559 82.4640288,183.217391 72.0395683,172.534161 C58.8848921,161.10559 51.1906475,144.459627 51.1906475,126.819876 C51.1906475,93.2795031 78.2446043,66.1987578 111.751799,66.1987578 C145.258993,66.1987578 172.31295,93.2795031 172.31295,126.819876 C172.31295,144.459627 164.866906,161.10559 151.71223,172.534161 Z" id="Shape"></path>
                <path d="M111.23162,73 C108.991351,73 107,74.9914163 107,77.2317597 C107,79.472103 108.991351,81.4635193 111.23162,81.4635193 C136.372425,81.4635193 156.534852,101.875536 156.534852,126.76824 C156.534852,129.008584 158.526202,131 160.766472,131 C163.006742,131 164.998093,129.008584 164.998093,126.76824 C165.247011,97.1459227 141.101883,73 111.23162,73 Z" id="Shape"></path>
                <path d="M138.568627,221 L83.4313725,221 C77.7189542,221 73,225.97619 73,232 C73,238.02381 77.7189542,243 83.4313725,243 L138.320261,243 C144.281046,242.738095 149,238.02381 149,232 C149,225.97619 144.281046,221 138.568627,221 Z M138.568627,233.833333 L83.4313725,233.833333 C82.4379085,233.833333 81.4444444,233.047619 81.4444444,231.738095 C81.4444444,230.428571 82.1895425,229.642857 83.4313725,229.642857 L138.320261,229.642857 C139.313725,229.642857 140.30719,230.428571 140.30719,231.738095 C140.30719,233.047619 139.562092,233.833333 138.568627,233.833333 Z" id="Shape"></path>
                <path d="M129.85,245 L92.15,245 C86.5916667,245 82,249.97619 82,256 C82,262.02381 86.5916667,267 92.15,267 L129.85,267 C135.408333,267 140,262.02381 140,256 C140,249.714286 135.408333,245 129.85,245 Z M129.85,257.833333 L92.15,257.833333 C91.1833333,257.833333 90.2166667,257.047619 90.2166667,255.738095 C90.2166667,254.428571 90.9416667,253.642857 92.15,253.642857 L129.85,253.642857 C130.816667,253.642857 131.783333,254.428571 131.783333,255.738095 C131.783333,257.047619 130.816667,257.833333 129.85,257.833333 Z" id="Shape"></path>
                <path d="M111.5,37 C114.147059,37 116,35.0266667 116,32.8066667 L116,4.19333333 C116,1.97333333 113.882353,0 111.5,0 C109.117647,0 107,1.97333333 107,4.19333333 L107,32.8066667 C107,35.0266667 109.117647,37 111.5,37 Z" id="Shape"></path>
                <path d="M182.165617,22.7658589 C180.20598,21.3374743 177.756434,22.0516666 176.53166,23.7181153 L160.854565,46.5722692 C159.384837,48.476782 159.874746,51.0954872 161.834383,52.2858077 C162.569247,52.7619359 163.304111,53 164.038975,53 C165.508703,53 166.733476,52.2858077 167.46834,51.0954872 L183.145435,28.2413333 C184.615163,26.5748845 184.125254,23.9561794 182.165617,22.7658589 Z" id="Shape"></path>
                <path d="M62.8381016,53 C63.5845875,53 64.3310734,52.7418884 65.0775592,52.2256652 C67.0681882,50.9351071 67.5658455,48.0958795 66.3217024,46.0309866 L50.8943277,20.9941608 C49.6501846,18.9292679 46.9130697,18.4130447 44.9224408,19.7036027 C42.9318118,20.9941608 42.4341545,23.8333884 43.6782976,25.8982813 L59.1056723,50.9351071 C60.1009868,52.4837768 61.3451299,53 62.8381016,53 Z" id="Shape"></path>
                <path d="M31.7955789,79.0688609 L6.39104382,65.4372157 C4.37880342,64.4458233 1.61197287,65.1893676 0.605852675,67.1721523 C-0.651797574,69.1549371 0.102792576,71.8812662 2.36656302,72.8726585 L27.7710981,86.5043038 C28.5256882,86.7521519 29.0287483,87 29.7833385,87 C31.2925188,87 32.8016991,86.2564557 33.5562892,84.7693671 C34.5624094,82.7865824 33.8078193,80.0602533 31.7955789,79.0688609 Z" id="Shape"></path>
                <path d="M223.557453,67.1721523 C222.553971,65.1893676 219.794395,64.4458233 217.787431,65.4372157 L192.198641,79.0688609 C190.191677,80.0602533 189.439065,82.7865824 190.442547,84.7693671 C191.195159,86.2564557 192.700382,87 194.205605,87 C194.958216,87 195.710828,86.7521519 196.212569,86.5043038 L221.801359,72.8726585 C223.808323,71.8812662 224.560935,69.1549371 223.557453,67.1721523 Z" id="Shape"></path>
            </g>
        </g>
    </g>
</svg>