<?xml version="1.0" encoding="UTF-8"?>
<svg width="154px" height="62px" viewBox="0 0 154 62" version="1.1" xmlns="http://www.w3.org/2000/svg" xmlns:xlink="http://www.w3.org/1999/xlink">
    <!-- Generator: Sketch 50.2 (55047) - http://www.bohemiancoding.com/sketch -->
    <title>logo</title>
    <desc>Created with Sketch.</desc>
    <defs></defs>
    <g id="Page-1" stroke="none" stroke-width="1" fill="none" fill-rule="evenodd">
        <g id="Main-page-Admin-главная" transform="translate(-408.000000, -14.000000)" fill-rule="nonzero">
            <g id="header" transform="translate(0.000000, -1.000000)">
                <g id="logo" transform="translate(408.000000, 15.000000)">
                    <path d="M40.2192243,0 L26.5598651,0 L26.5598651,2.00497512 C26.6357504,3.62437811 27.0151771,5.16666667 27.7740304,6.55472637 L27.7740304,6.6318408 C28.0016863,7.01741294 28.153457,7.40298507 28.3052277,7.86567164 C28.608769,8.63681592 29.2917369,10.9502488 29.7470489,13.340796 C29.8229342,13.7263682 29.8988196,14.1119403 29.8988196,14.420398 C29.9747049,14.7288557 29.9747049,15.0373134 30.0505902,15.4228856 C30.3541315,17.119403 30.8853288,21.4378109 30.9612142,21.9776119 C31.0370995,22.2860697 30.9612142,22.5945274 30.7335582,22.8258706 C30.5817875,22.9800995 30.4300169,23.1343284 30.2023609,23.1343284 C30.2023609,23.1343284 30.1264755,23.1343284 30.1264755,23.1343284 C29.6711636,23.1343284 29.2917369,22.7487562 29.2158516,22.2089552 C29.2158516,22.2089552 27.8499157,16.039801 27.8499157,16.039801 C27.7740304,15.8855721 27.698145,15.8084577 27.5463744,15.8855721 C27.3946037,15.8855721 27.3187184,15.9626866 27.3187184,16.1169154 C27.3187184,16.8880597 27.3946037,17.7363184 27.3946037,18.3532338 C27.3946037,18.6616915 27.3946037,18.8930348 27.470489,19.0472637 C27.5463744,20.2039801 27.8499157,25.9104478 27.8499157,25.9875622 L27.8499157,26.0646766 C27.8499157,26.681592 27.470489,27.221393 26.9392917,27.2985075 C26.9392917,27.2985075 26.8634064,27.2985075 26.7875211,27.2985075 C26.2563238,27.2985075 25.8010118,26.8358209 25.7251265,26.141791 C25.6492411,25.7562189 25.4974705,24.2910448 25.3456998,22.9029851 C25.1939292,21.9004975 24.7386172,17.8134328 24.5109612,17.119403 C24.5109612,16.9651741 24.3591906,16.8880597 24.2074199,16.8880597 C24.0556492,16.8880597 23.9797639,16.9651741 23.9797639,17.0422886 L23.9797639,17.119403 C23.8279933,17.5820896 23.7521079,23.5970149 23.7521079,26.2189055 C23.7521079,26.9900498 23.7521079,27.5298507 23.7521079,27.6069652 C23.6762226,28.300995 23.2209106,28.9179104 22.613828,28.9179104 C22.0067454,28.9179104 21.5514334,28.3781095 21.4755481,27.6840796 C21.4755481,27.6069652 21.4755481,27.0671642 21.4755481,26.2960199 C21.3996627,23.7512438 21.3237774,17.659204 21.2478921,17.1965174 C21.2478921,17.0422886 21.0961214,16.9651741 21.0202361,16.9651741 C20.8684654,16.9651741 20.7925801,17.0422886 20.7925801,17.119403 C20.4890388,17.8905473 19.5025295,25.7562189 19.4266442,26.141791 C19.3507589,26.7587065 18.8954469,27.2985075 18.3642496,27.2985075 C18.2883642,27.2985075 18.2883642,27.2985075 18.2124789,27.2985075 C17.6812816,27.221393 17.301855,26.681592 17.301855,26.0646766 L17.301855,25.9875622 C17.301855,25.9104478 17.6053963,20.2810945 17.6812816,19.0472637 C17.6812816,18.8930348 17.6812816,18.5845771 17.7571669,18.3532338 C17.8330523,17.2736318 17.9089376,15.8855721 17.8330523,14.5746269 C17.8330523,14.2661692 17.529511,14.1119403 17.3777403,14.1119403 C17.2259696,14.1119403 17.074199,14.1119403 16.9224283,14.2661692 C16.5430017,14.7288557 16.163575,15.2686567 15.7841484,15.8084577 C15.2529511,16.5024876 14.7976391,17.119403 14.4940978,17.5049751 C13.8111298,18.2761194 13.1281619,18.738806 12.5210793,18.738806 C12.2934233,18.738806 12.0657673,18.6616915 11.9139966,18.5074627 C11.4586847,18.1218905 11.6104553,17.8134328 11.989882,17.2736318 C12.1416526,17.0422886 12.3693086,16.6567164 12.5210793,16.2711443 C12.6728499,15.8855721 13.1281619,14.4975124 13.5834739,13.1865672 C14.1146712,11.721393 14.5699831,10.2562189 14.7217538,10.0248756 C15.0252951,9.09950249 15.4806071,8.09701493 16.0876897,7.17164179 L16.0876897,7.09452736 C16.9983137,5.47512438 17.4536256,3.62437811 17.4536256,1.77363184 L17.4536256,0.0771144279 L4.62900506,0.0771144279 C2.04890388,0.0771144279 0,2.23631841 0,4.78109453 L0,57.2960199 C0,59.9179104 2.12478921,62 4.62900506,62 L19.8060708,62 L19.8060708,60.6119403 C19.8060708,58.9154229 19.3507589,57.3731343 18.5160202,55.9850746 C18.2124789,55.4452736 17.9848229,54.8283582 17.6812816,54.0572139 C17.4536256,53.4402985 17.1500843,51.2039801 16.9224283,48.8134328 C16.6947723,45.8059701 16.5430017,42.4900498 16.5430017,42.2587065 C16.5430017,42.2587065 16.5430017,42.2587065 16.5430017,42.2587065 C16.5430017,42.2587065 16.5430017,42.2587065 16.5430017,42.2587065 C16.5430017,41.8731343 16.6947723,41.5646766 17.074199,41.4875622 C17.3777403,41.4875622 17.6812816,41.7960199 17.6812816,42.181592 C17.7571669,42.4129353 18.1365936,45.2661692 18.3642496,46.6542289 C18.3642496,46.8084577 18.5160202,46.8855721 18.6677909,46.8855721 C18.8195616,46.8855721 18.8954469,46.8084577 18.9713322,46.6542289 C18.8954469,45.0348259 18.6677909,39.1741294 18.5919056,38.6343284 C18.5919056,38.0945274 18.8954469,37.6318408 19.2748735,37.5547264 C19.7301855,37.4776119 20.1096121,37.9402985 20.1854975,38.4800995 C20.2613828,38.9427861 20.5649241,43.3383085 20.9443508,44.880597 C21.0202361,44.9577114 21.0961214,45.1119403 21.2478921,45.1119403 C21.3996627,45.1119403 21.4755481,45.0348259 21.5514334,44.880597 C21.5514334,44.880597 21.5514334,44.880597 21.5514334,44.880597 C21.6273187,43.800995 21.703204,37.5547264 21.703204,37.0149254 C21.703204,36.3208955 22.0826307,35.7810945 22.5379427,35.7810945 C23.06914,35.7810945 23.3726813,36.3208955 23.3726813,36.9378109 C23.3726813,36.9378109 23.5244519,43.9552239 23.6003373,44.8034826 C23.6003373,44.8034826 23.6003373,44.8034826 23.6003373,44.8034826 C23.6003373,44.9577114 23.7521079,45.0348259 23.9038786,45.0348259 C23.9797639,45.0348259 24.1315346,44.9577114 24.1315346,44.880597 C24.5109612,43.4154229 24.8145025,38.8656716 24.8903879,38.4029851 C24.9662732,37.8631841 25.3456998,37.4004975 25.8010118,37.4004975 C26.2563238,37.4776119 26.5598651,37.8631841 26.4839798,38.4800995 C26.4839798,39.0199005 26.1804384,44.880597 26.4839798,47.3482587 C26.5598651,47.579602 26.7116358,47.7338308 26.9392917,47.7338308 C27.1669477,47.7338308 27.3187184,47.579602 27.3946037,47.4253731 C27.7740304,46.3457711 27.7740304,45.960199 28.153457,44.9577114 C28.4569983,44.0323383 29.0640809,43.4154229 29.7470489,43.5696517 C30.4300169,43.800995 30.2023609,44.4179104 29.9747049,45.3432836 C29.8988196,45.7288557 29.5952782,47.4253731 29.3676223,48.7363184 C29.0640809,51.1268657 28.4569983,54.0572139 27.5463744,55.9850746 C26.7875211,57.3731343 26.3322091,58.9154229 26.3322091,60.6119403 L26.3322091,61.9228856 L40.3709949,61.9228856 C42.9510961,61.9228856 45,59.7636816 45,57.2189055 L45,4.7039801 C44.9241147,2.08208955 42.7993255,0 40.2192243,0" id="Shape" fill="#7B57A0"></path>
                    <g id="Group-13" transform="translate(57.000000, 8.000000)">
                        <polygon id="Shape" fill="#7B57A0" points="11 14 8.48993289 14 8.48993289 7.57718121 5.61073826 12.2281879 5.31543624 12.2281879 2.51006711 7.57718121 2.51006711 14 0 14 0 3 2.51006711 3 5.46308725 7.87248322 8.48993289 3 11 3"></polygon>
                        <rect id="Rectangle-path" fill="#7B57A0" x="14" y="3" width="3" height="11"></rect>
                        <path d="M25.362069,8 L20.9396552,14 L19,14 L19,2.96296296 L21.637931,2.96296296 L21.637931,8.96296296 L26.0603448,2.96296296 L28,2.96296296 L28,14 L25.362069,14 L25.362069,8 Z M21.0172414,0 L25.9827586,0 L25.9827586,2.07407407 L21.0172414,2.07407407 L21.0172414,0 Z" id="Shape" fill="#7B57A0"></path>
                        <polygon id="Shape" fill="#7B57A0" points="9 20 9 31 6.39473684 31 6.39473684 26.6148649 2.68421053 26.6148649 2.68421053 31 0 31 0 20 2.68421053 20 2.68421053 24.2364865 6.39473684 24.2364865 6.39473684 20"></polygon>
                        <path d="M17.6153846,29.2905405 L13.3846154,29.2905405 L12.8461538,31 L10,31 L13.8461538,20 L17.1538462,20 L21,31 L18.1538462,31 L17.6153846,29.2905405 Z M16.8461538,26.9121622 L15.5384615,22.8986486 L14.2307692,26.9121622 L16.8461538,26.9121622 Z" id="Shape" fill="#7B57A0"></path>
                        <path d="M22,26 C22,22.5714286 24.4964539,20 28.0070922,20 C30.1134752,20 31.9858156,21.012987 33,22.6493506 L30.7375887,23.974026 C30.1914894,23.1168831 29.2553191,22.5714286 28.0851064,22.5714286 C26.0567376,22.5714286 24.7304965,23.974026 24.7304965,26 C24.7304965,28.1038961 26.0567376,29.4285714 28.0851064,29.4285714 C29.2553191,29.4285714 30.2695035,28.8831169 30.7375887,28.025974 L33,29.3506494 C31.9858156,30.987013 30.1914894,32 28.0070922,32 C24.5744681,32 22,29.4285714 22,26" id="Shape" fill="#7B57A0"></path>
                        <polygon id="Shape" fill="#7B57A0" points="43 22.4527027 39.9189189 22.4527027 39.9189189 31 37.1621622 31 37.1621622 22.4527027 34 22.4527027 34 20 43 20"></polygon>
                        <path d="M49.6153846,29.2905405 L45.3846154,29.2905405 L44.8461538,31 L42,31 L45.8461538,20 L49.1538462,20 L53,31 L50.1538462,31 L49.6153846,29.2905405 Z M48.8461538,26.9121622 L47.5384615,22.8986486 L46.2307692,26.9121622 L48.8461538,26.9121622 Z" id="Shape" fill="#7B57A0"></path>
                        <path d="M63,27.8040541 C63,29.7364865 61.4727273,31 59.5090909,31 L55,31 L55,20 L59.2181818,20 C61.1090909,20 62.6363636,21.2635135 62.6363636,23.1216216 C62.6363636,24.0135135 62.2727273,24.7567568 61.6909091,25.277027 C62.4909091,25.7972973 63,26.6891892 63,27.8040541 Z M57.4727273,22.3783784 L57.4727273,24.3108108 L59.2181818,24.3108108 C59.8,24.3108108 60.1636364,23.8648649 60.1636364,23.3445946 C60.1636364,22.75 59.8,22.3783784 59.2181818,22.3783784 L57.4727273,22.3783784 Z M60.6,27.5810811 C60.6,26.9864865 60.1636364,26.5405405 59.5818182,26.5405405 L57.4727273,26.5405405 L57.4727273,28.6216216 L59.5090909,28.6216216 C60.1636364,28.6959459 60.6,28.25 60.6,27.5810811 Z" id="Shape" fill="#7B57A0"></path>
                        <polygon id="Shape" fill="#7B57A0" points="74 20 74 31 71.3391304 31 71.3391304 26.6148649 67.6608696 26.6148649 67.6608696 31 65 31 65 20 67.6608696 20 67.6608696 24.2364865 71.3391304 24.2364865 71.3391304 20"></polygon>
                        <polygon id="Shape" fill="#7B57A0" points="82.3846154 25.0540541 77.9230769 31 76 31 76 20 78.6153846 20 78.6153846 26.0202703 83 20 85 20 85 31 82.3846154 31"></polygon>
                        <polygon id="Shape" fill="#7B57A0" points="94.075 31 90.55 25.9459459 90.55 31 88 31 88 20 90.55 20 90.55 24.7567568 93.925 20 96.85 20 93.1 25.3513514 97 31"></polygon>
                        <path d="M1.68,39.6052632 C2,39.6052632 2.4,39.5263158 2.64,39.3684211 C2.88,39.2105263 2.96,38.9736842 2.96,38.6578947 C2.96,38.3421053 2.8,38.1052632 2.64,38.0263158 C2.4,37.7894737 2.08,37.7894737 1.76,37.7894737 C1.36,37.7894737 0.8,37.8684211 0.32,38.1052632 L0.24,37.3157895 C0.72,37.1578947 1.28,37 1.84,37 C2.24,37 2.8,37 3.28,37.3947368 C3.6,37.6315789 3.84,38.0263158 3.84,38.5789474 C3.84,38.8947368 3.76,39.2105263 3.52,39.4473684 C3.36,39.6842105 2.96,39.7631579 2.8,39.8421053 C3.2,39.9210526 3.52,40.0789474 3.68,40.3157895 C3.92,40.5526316 4,40.8684211 4,41.2631579 C4,41.8947368 3.68,42.3684211 3.28,42.6052632 C2.8,43 2.16,43 1.68,43 C1.04,43 0.48,42.8421053 0,42.6052632 L0.08,41.8157895 C0.8,42.1315789 1.36,42.2105263 1.68,42.2105263 C2,42.2105263 2.32,42.2105263 2.64,41.9736842 C2.88,41.8157895 3.04,41.5 3.04,41.1842105 C3.04,40.8684211 2.88,40.6315789 2.72,40.4736842 C2.4,40.2368421 1.92,40.1578947 1.68,40.1578947 L1.12,40.1578947 L1.12,39.4473684 L1.68,39.4473684 L1.68,39.6052632 Z" id="Shape" fill="#34454E"></path>
                        <polygon id="Shape" fill="#34454E" points="5 37 6.33333333 37 8.03703704 41.96 9.74074074 37 11 37 11 43 10.2592593 43 10.2592593 37.8 10.2592593 37.8 8.40740741 43 7.66666667 43 5.81481481 37.8 5.81481481 37.8 5.81481481 43 5 43"></polygon>
                        <rect id="Rectangle-path" fill="#34454E" x="13" y="37" width="1" height="6"></rect>
                        <polygon id="Shape" fill="#34454E" points="16 37 16.7719298 37 16.7719298 39.48 19.2280702 39.48 19.2280702 37 20 37 20 43 19.2280702 43 19.2280702 40.28 16.7719298 40.28 16.7719298 43 16 43"></polygon>
                        <path d="M22,37 L22.9016393,37 L22.9016393,41.08 L22.9016393,41.8 L22.9836066,41.8 C23.2295082,41.4 23.3114754,41.24 23.557377,40.84 L26.0163934,37 L27,37 L27,42.92 L26.0983607,42.92 L26.0983607,38.92 L26.0983607,38.2 L26.0163934,38.2 C25.7704918,38.68 25.6885246,38.84 25.442623,39.16 L22.9836066,43 L22,43 L22,37 Z" id="Shape" fill="#34454E"></path>
                        <polygon id="Shape" fill="#34454E" points="33.8645833 39.64 33.9375 39.64 35.90625 37 36.78125 37 34.6666667 39.8 37 43 35.9791667 43 33.9375 40.04 33.8645833 40.04 33.8645833 43 33.1354167 43 33.1354167 40.04 33.0625 40.04 31.0208333 43 30 43 32.3333333 39.8 30.21875 37 31.09375 37 33.0625 39.64 33.1354167 39.64 33.1354167 37 33.8645833 37"></polygon>
                        <path d="M38,37 L38.9016393,37 L38.9016393,41.08 L38.9016393,41.8 L38.9836066,41.8 C39.2295082,41.4 39.3114754,41.24 39.557377,40.84 L42.0163934,37 L43,37 L43,42.92 L42.0983607,42.92 L42.0983607,38.92 L42.0983607,38.2 L42.0163934,38.2 C41.7704918,38.68 41.6885246,38.84 41.442623,39.16 L38.9836066,43 L38,43 L38,37 Z" id="Shape" fill="#34454E"></path>
                        <polygon id="Shape" fill="#34454E" points="45.6140351 37.8 44 37.8 44 37 48 37 48 37.8 46.3859649 37.8 46.3859649 43 45.6140351 43"></polygon>
                        <polygon id="Shape" fill="#34454E" points="50.6140351 37.8 49 37.8 49 37 53 37 53 37.8 51.3859649 37.8 51.3859649 43 50.6140351 43"></polygon>
                        <path d="M58,43 L57.1538462,43 L57.1538462,40.6315789 L56.2307692,40.6315789 L55,43 L54,43 L55.3846154,40.4736842 C54.9230769,40.3157895 54.6153846,40 54.6153846,39.9210526 C54.3846154,39.6052632 54.2307692,39.2105263 54.2307692,38.8157895 C54.2307692,38.4210526 54.3076923,37.8684211 54.7692308,37.4736842 C55.2307692,37.0789474 55.7692308,37 56.2307692,37 L57.8461538,37 L57.8461538,43 L58,43 Z M57.1538462,37.8684211 L56.3076923,37.8684211 C56.0769231,37.8684211 55.7692308,37.8684211 55.5384615,38.1052632 C55.3846154,38.2631579 55.2307692,38.5 55.2307692,38.8947368 C55.2307692,39.2105263 55.3846154,39.4473684 55.5384615,39.6052632 C55.8461538,39.9210526 56.2307692,39.9210526 56.6153846,39.9210526 L57.2307692,39.9210526 L57.2307692,37.8684211 L57.1538462,37.8684211 Z" id="Shape" fill="#34454E"></path>
                        <path d="M62.3676471,42.0769231 C62.7352941,41.3846154 62.8823529,40.8461538 62.9558824,40.4615385 C63.0294118,40.0769231 63.1029412,39.5384615 63.1029412,38.4615385 L63.1764706,37 L66.3382353,37 L66.3382353,42 L67,42 L67,44 L66.2647059,44 L66.2647059,42.6923077 L62.7352941,42.6923077 L62.7352941,44 L62,44 L62,42 L62.3676471,42 L62.3676471,42.0769231 Z M63.8382353,37.8461538 L63.7647059,39.0769231 C63.7647059,39.6153846 63.6911765,40.1538462 63.6176471,40.7692308 C63.5441176,41.3076923 63.3970588,41.6923077 63.1029412,42.1538462 L65.5294118,42.1538462 L65.5294118,37.8461538 L63.8382353,37.8461538 Z" id="Shape" fill="#34454E"></path>
                        <path d="M68,37 L68.9016393,37 L68.9016393,41.08 L68.9016393,41.8 L68.9836066,41.8 C69.2295082,41.4 69.3114754,41.24 69.557377,40.84 L72.0163934,37 L73,37 L73,42.92 L72.0983607,42.92 L72.0983607,38.92 L72.0983607,38.2 L72.0163934,38.2 C71.7704918,38.68 71.6885246,38.84 71.442623,39.16 L68.9836066,43 L68,43 L68,37 Z" id="Shape" fill="#34454E"></path>
                        <polygon id="Shape" fill="#34454E" points="75.6140351 37.8 74 37.8 74 37 78 37 78 37.8 76.3157895 37.8 76.3157895 43 75.6140351 43"></polygon>
                        <path d="M79,37 L79.9016393,37 L79.9016393,41.08 L79.9016393,41.8 L79.9836066,41.8 C80.2295082,41.4 80.3114754,41.24 80.557377,40.84 L83.0163934,37 L84,37 L84,42.92 L83.0983607,42.92 L83.0983607,38.92 L83.0983607,38.2 L83.0163934,38.2 C82.7704918,38.68 82.6885246,38.84 82.442623,39.16 L79.9836066,43 L79,43 L79,37 Z" id="Shape" fill="#34454E"></path>
                        <polygon id="Shape" fill="#34454E" points="86 37 86.7142857 37 86.7142857 39.48 89.2857143 39.48 89.2857143 37 90 37 90 43 89.2857143 43 89.2857143 40.28 86.7142857 40.28 86.7142857 43 86 43"></polygon>
                        <path d="M92,37 L92.9016393,37 L92.9016393,41.08 L92.9016393,41.8 L92.9836066,41.8 C93.2295082,41.4 93.3114754,41.24 93.557377,40.84 L96.0163934,37 L97,37 L97,42.92 L96.0983607,42.92 L96.0983607,38.92 L96.0983607,38.2 L96.0163934,38.2 C95.7704918,38.68 95.6885246,38.84 95.442623,39.16 L92.9836066,43 L92,43 L92,37 Z" id="Shape" fill="#34454E"></path>
                    </g>
                </g>
            </g>
        </g>
    </g>
</svg>