<?xml version="1.0" encoding="UTF-8"?>
<svg width="154px" height="62px" viewBox="0 0 154 62" version="1.1" xmlns="http://www.w3.org/2000/svg" xmlns:xlink="http://www.w3.org/1999/xlink">
    <!-- Generator: Sketch 50.2 (55047) - http://www.bohemiancoding.com/sketch -->
    <title>logo</title>
    <desc>Created with Sketch.</desc>
    <defs></defs>
    <g id="Page-1" stroke="none" stroke-width="1" fill="none" fill-rule="evenodd">
        <g id="Main-page-SCCCDM-наставники" transform="translate(-408.000000, -14.000000)" fill-rule="nonzero">
            <g id="header" transform="translate(0.000000, -1.000000)">
                <g id="logo" transform="translate(408.000000, 15.000000)">
                    <path d="M40.2192243,0 L26.5598651,0 L26.5598651,2.00497512 C26.6357504,3.62437811 27.0151771,5.16666667 27.7740304,6.55472637 L27.7740304,6.6318408 C28.0016863,7.01741294 28.153457,7.40298507 28.3052277,7.86567164 C28.608769,8.63681592 29.2917369,10.9502488 29.7470489,13.340796 C29.8229342,13.7263682 29.8988196,14.1119403 29.8988196,14.420398 C29.9747049,14.7288557 29.9747049,15.0373134 30.0505902,15.4228856 C30.3541315,17.119403 30.8853288,21.4378109 30.9612142,21.9776119 C31.0370995,22.2860697 30.9612142,22.5945274 30.7335582,22.8258706 C30.5817875,22.9800995 30.4300169,23.1343284 30.2023609,23.1343284 C30.2023609,23.1343284 30.1264755,23.1343284 30.1264755,23.1343284 C29.6711636,23.1343284 29.2917369,22.7487562 29.2158516,22.2089552 C29.2158516,22.2089552 27.8499157,16.039801 27.8499157,16.039801 C27.7740304,15.8855721 27.698145,15.8084577 27.5463744,15.8855721 C27.3946037,15.8855721 27.3187184,15.9626866 27.3187184,16.1169154 C27.3187184,16.8880597 27.3946037,17.7363184 27.3946037,18.3532338 C27.3946037,18.6616915 27.3946037,18.8930348 27.470489,19.0472637 C27.5463744,20.2039801 27.8499157,25.9104478 27.8499157,25.9875622 L27.8499157,26.0646766 C27.8499157,26.681592 27.470489,27.221393 26.9392917,27.2985075 C26.9392917,27.2985075 26.8634064,27.2985075 26.7875211,27.2985075 C26.2563238,27.2985075 25.8010118,26.8358209 25.7251265,26.141791 C25.6492411,25.7562189 25.4974705,24.2910448 25.3456998,22.9029851 C25.1939292,21.9004975 24.7386172,17.8134328 24.5109612,17.119403 C24.5109612,16.9651741 24.3591906,16.8880597 24.2074199,16.8880597 C24.0556492,16.8880597 23.9797639,16.9651741 23.9797639,17.0422886 L23.9797639,17.119403 C23.8279933,17.5820896 23.7521079,23.5970149 23.7521079,26.2189055 C23.7521079,26.9900498 23.7521079,27.5298507 23.7521079,27.6069652 C23.6762226,28.300995 23.2209106,28.9179104 22.613828,28.9179104 C22.0067454,28.9179104 21.5514334,28.3781095 21.4755481,27.6840796 C21.4755481,27.6069652 21.4755481,27.0671642 21.4755481,26.2960199 C21.3996627,23.7512438 21.3237774,17.659204 21.2478921,17.1965174 C21.2478921,17.0422886 21.0961214,16.9651741 21.0202361,16.9651741 C20.8684654,16.9651741 20.7925801,17.0422886 20.7925801,17.119403 C20.4890388,17.8905473 19.5025295,25.7562189 19.4266442,26.141791 C19.3507589,26.7587065 18.8954469,27.2985075 18.3642496,27.2985075 C18.2883642,27.2985075 18.2883642,27.2985075 18.2124789,27.2985075 C17.6812816,27.221393 17.301855,26.681592 17.301855,26.0646766 L17.301855,25.9875622 C17.301855,25.9104478 17.6053963,20.2810945 17.6812816,19.0472637 C17.6812816,18.8930348 17.6812816,18.5845771 17.7571669,18.3532338 C17.8330523,17.2736318 17.9089376,15.8855721 17.8330523,14.5746269 C17.8330523,14.2661692 17.529511,14.1119403 17.3777403,14.1119403 C17.2259696,14.1119403 17.074199,14.1119403 16.9224283,14.2661692 C16.5430017,14.7288557 16.163575,15.2686567 15.7841484,15.8084577 C15.2529511,16.5024876 14.7976391,17.119403 14.4940978,17.5049751 C13.8111298,18.2761194 13.1281619,18.738806 12.5210793,18.738806 C12.2934233,18.738806 12.0657673,18.6616915 11.9139966,18.5074627 C11.4586847,18.1218905 11.6104553,17.8134328 11.989882,17.2736318 C12.1416526,17.0422886 12.3693086,16.6567164 12.5210793,16.2711443 C12.6728499,15.8855721 13.1281619,14.4975124 13.5834739,13.1865672 C14.1146712,11.721393 14.5699831,10.2562189 14.7217538,10.0248756 C15.0252951,9.09950249 15.4806071,8.09701493 16.0876897,7.17164179 L16.0876897,7.09452736 C16.9983137,5.47512438 17.4536256,3.62437811 17.4536256,1.77363184 L17.4536256,0.0771144279 L4.62900506,0.0771144279 C2.04890388,0.0771144279 0,2.23631841 0,4.78109453 L0,57.2960199 C0,59.9179104 2.12478921,62 4.62900506,62 L19.8060708,62 L19.8060708,60.6119403 C19.8060708,58.9154229 19.3507589,57.3731343 18.5160202,55.9850746 C18.2124789,55.4452736 17.9848229,54.8283582 17.6812816,54.0572139 C17.4536256,53.4402985 17.1500843,51.2039801 16.9224283,48.8134328 C16.6947723,45.8059701 16.5430017,42.4900498 16.5430017,42.2587065 C16.5430017,42.2587065 16.5430017,42.2587065 16.5430017,42.2587065 C16.5430017,42.2587065 16.5430017,42.2587065 16.5430017,42.2587065 C16.5430017,41.8731343 16.6947723,41.5646766 17.074199,41.4875622 C17.3777403,41.4875622 17.6812816,41.7960199 17.6812816,42.181592 C17.7571669,42.4129353 18.1365936,45.2661692 18.3642496,46.6542289 C18.3642496,46.8084577 18.5160202,46.8855721 18.6677909,46.8855721 C18.8195616,46.8855721 18.8954469,46.8084577 18.9713322,46.6542289 C18.8954469,45.0348259 18.6677909,39.1741294 18.5919056,38.6343284 C18.5919056,38.0945274 18.8954469,37.6318408 19.2748735,37.5547264 C19.7301855,37.4776119 20.1096121,37.9402985 20.1854975,38.4800995 C20.2613828,38.9427861 20.5649241,43.3383085 20.9443508,44.880597 C21.0202361,44.9577114 21.0961214,45.1119403 21.2478921,45.1119403 C21.3996627,45.1119403 21.4755481,45.0348259 21.5514334,44.880597 C21.5514334,44.880597 21.5514334,44.880597 21.5514334,44.880597 C21.6273187,43.800995 21.703204,37.5547264 21.703204,37.0149254 C21.703204,36.3208955 22.0826307,35.7810945 22.5379427,35.7810945 C23.06914,35.7810945 23.3726813,36.3208955 23.3726813,36.9378109 C23.3726813,36.9378109 23.5244519,43.9552239 23.6003373,44.8034826 C23.6003373,44.8034826 23.6003373,44.8034826 23.6003373,44.8034826 C23.6003373,44.9577114 23.7521079,45.0348259 23.9038786,45.0348259 C23.9797639,45.0348259 24.1315346,44.9577114 24.1315346,44.880597 C24.5109612,43.4154229 24.8145025,38.8656716 24.8903879,38.4029851 C24.9662732,37.8631841 25.3456998,37.4004975 25.8010118,37.4004975 C26.2563238,37.4776119 26.5598651,37.8631841 26.4839798,38.4800995 C26.4839798,39.0199005 26.1804384,44.880597 26.4839798,47.3482587 C26.5598651,47.579602 26.7116358,47.7338308 26.9392917,47.7338308 C27.1669477,47.7338308 27.3187184,47.579602 27.3946037,47.4253731 C27.7740304,46.3457711 27.7740304,45.960199 28.153457,44.9577114 C28.4569983,44.0323383 29.0640809,43.4154229 29.7470489,43.5696517 C30.4300169,43.800995 30.2023609,44.4179104 29.9747049,45.3432836 C29.8988196,45.7288557 29.5952782,47.4253731 29.3676223,48.7363184 C29.0640809,51.1268657 28.4569983,54.0572139 27.5463744,55.9850746 C26.7875211,57.3731343 26.3322091,58.9154229 26.3322091,60.6119403 L26.3322091,61.9228856 L40.3709949,61.9228856 C42.9510961,61.9228856 45,59.7636816 45,57.2189055 L45,4.7039801 C44.9241147,2.08208955 42.7993255,0 40.2192243,0" id="Shape" fill="#037286"></path>
                    <polygon id="Shape" fill="#037286" points="68 22 65.4899329 22 65.4899329 15.5771812 62.6107383 20.2281879 62.3154362 20.2281879 59.5100671 15.5771812 59.5100671 22 57 22 57 11 59.5100671 11 62.4630872 15.8724832 65.4899329 11 68 11"></polygon>
                    <rect id="Rectangle-path" fill="#037286" x="71" y="11" width="3" height="11"></rect>
                    <path d="M82.362069,16 L77.9396552,22 L76,22 L76,10.962963 L78.637931,10.962963 L78.637931,16.962963 L83.0603448,10.962963 L85,10.962963 L85,22 L82.362069,22 L82.362069,16 Z M78.0172414,8 L82.9827586,8 L82.9827586,10.0740741 L78.0172414,10.0740741 L78.0172414,8 Z" id="Shape" fill="#037286"></path>
                    <polygon id="Shape" fill="#037286" points="66 28 66 39 63.3947368 39 63.3947368 34.6148649 59.6842105 34.6148649 59.6842105 39 57 39 57 28 59.6842105 28 59.6842105 32.2364865 63.3947368 32.2364865 63.3947368 28"></polygon>
                    <path d="M74.6153846,37.2905405 L70.3846154,37.2905405 L69.8461538,39 L67,39 L70.8461538,28 L74.1538462,28 L78,39 L75.1538462,39 L74.6153846,37.2905405 Z M73.8461538,34.9121622 L72.5384615,30.8986486 L71.2307692,34.9121622 L73.8461538,34.9121622 Z" id="Shape" fill="#037286"></path>
                    <path d="M79,34 C79,30.5714286 81.4964539,28 85.0070922,28 C87.1134752,28 88.9858156,29.012987 90,30.6493506 L87.7375887,31.974026 C87.1914894,31.1168831 86.2553191,30.5714286 85.0851064,30.5714286 C83.0567376,30.5714286 81.7304965,31.974026 81.7304965,34 C81.7304965,36.1038961 83.0567376,37.4285714 85.0851064,37.4285714 C86.2553191,37.4285714 87.2695035,36.8831169 87.7375887,36.025974 L90,37.3506494 C88.9858156,38.987013 87.1914894,40 85.0070922,40 C81.5744681,40 79,37.4285714 79,34" id="Shape" fill="#037286"></path>
                    <polygon id="Shape" fill="#037286" points="100 30.4527027 96.9189189 30.4527027 96.9189189 39 94.1621622 39 94.1621622 30.4527027 91 30.4527027 91 28 100 28"></polygon>
                    <path d="M106.615385,37.2905405 L102.384615,37.2905405 L101.846154,39 L99,39 L102.846154,28 L106.153846,28 L110,39 L107.153846,39 L106.615385,37.2905405 Z M105.846154,34.9121622 L104.538462,30.8986486 L103.230769,34.9121622 L105.846154,34.9121622 Z" id="Shape" fill="#037286"></path>
                    <path d="M120,35.8040541 C120,37.7364865 118.472727,39 116.509091,39 L112,39 L112,28 L116.218182,28 C118.109091,28 119.636364,29.2635135 119.636364,31.1216216 C119.636364,32.0135135 119.272727,32.7567568 118.690909,33.277027 C119.490909,33.7972973 120,34.6891892 120,35.8040541 Z M114.472727,30.3783784 L114.472727,32.3108108 L116.218182,32.3108108 C116.8,32.3108108 117.163636,31.8648649 117.163636,31.3445946 C117.163636,30.75 116.8,30.3783784 116.218182,30.3783784 L114.472727,30.3783784 Z M117.6,35.5810811 C117.6,34.9864865 117.163636,34.5405405 116.581818,34.5405405 L114.472727,34.5405405 L114.472727,36.6216216 L116.509091,36.6216216 C117.163636,36.6959459 117.6,36.25 117.6,35.5810811 Z" id="Shape" fill="#037286"></path>
                    <polygon id="Shape" fill="#037286" points="131 28 131 39 128.33913 39 128.33913 34.6148649 124.66087 34.6148649 124.66087 39 122 39 122 28 124.66087 28 124.66087 32.2364865 128.33913 32.2364865 128.33913 28"></polygon>
                    <polygon id="Shape" fill="#037286" points="139.384615 33.0540541 134.923077 39 133 39 133 28 135.615385 28 135.615385 34.0202703 140 28 142 28 142 39 139.384615 39"></polygon>
                    <polygon id="Shape" fill="#037286" points="151.075 39 147.55 33.9459459 147.55 39 145 39 145 28 147.55 28 147.55 32.7567568 150.925 28 153.85 28 150.1 33.3513514 154 39"></polygon>
                    <path d="M58.68,47.6052632 C59,47.6052632 59.4,47.5263158 59.64,47.3684211 C59.88,47.2105263 59.96,46.9736842 59.96,46.6578947 C59.96,46.3421053 59.8,46.1052632 59.64,46.0263158 C59.4,45.7894737 59.08,45.7894737 58.76,45.7894737 C58.36,45.7894737 57.8,45.8684211 57.32,46.1052632 L57.24,45.3157895 C57.72,45.1578947 58.28,45 58.84,45 C59.24,45 59.8,45 60.28,45.3947368 C60.6,45.6315789 60.84,46.0263158 60.84,46.5789474 C60.84,46.8947368 60.76,47.2105263 60.52,47.4473684 C60.36,47.6842105 59.96,47.7631579 59.8,47.8421053 C60.2,47.9210526 60.52,48.0789474 60.68,48.3157895 C60.92,48.5526316 61,48.8684211 61,49.2631579 C61,49.8947368 60.68,50.3684211 60.28,50.6052632 C59.8,51 59.16,51 58.68,51 C58.04,51 57.48,50.8421053 57,50.6052632 L57.08,49.8157895 C57.8,50.1315789 58.36,50.2105263 58.68,50.2105263 C59,50.2105263 59.32,50.2105263 59.64,49.9736842 C59.88,49.8157895 60.04,49.5 60.04,49.1842105 C60.04,48.8684211 59.88,48.6315789 59.72,48.4736842 C59.4,48.2368421 58.92,48.1578947 58.68,48.1578947 L58.12,48.1578947 L58.12,47.4473684 L58.68,47.4473684 L58.68,47.6052632 Z" id="Shape" fill="#34454E"></path>
                    <polygon id="Shape" fill="#34454E" points="62 45 63.3333333 45 65.037037 49.96 66.7407407 45 68 45 68 51 67.2592593 51 67.2592593 45.8 67.2592593 45.8 65.4074074 51 64.6666667 51 62.8148148 45.8 62.8148148 45.8 62.8148148 51 62 51"></polygon>
                    <rect id="Rectangle-path" fill="#34454E" x="70" y="45" width="1" height="6"></rect>
                    <polygon id="Shape" fill="#34454E" points="73 45 73.7719298 45 73.7719298 47.48 76.2280702 47.48 76.2280702 45 77 45 77 51 76.2280702 51 76.2280702 48.28 73.7719298 48.28 73.7719298 51 73 51"></polygon>
                    <path d="M79,45 L79.9016393,45 L79.9016393,49.08 L79.9016393,49.8 L79.9836066,49.8 C80.2295082,49.4 80.3114754,49.24 80.557377,48.84 L83.0163934,45 L84,45 L84,50.92 L83.0983607,50.92 L83.0983607,46.92 L83.0983607,46.2 L83.0163934,46.2 C82.7704918,46.68 82.6885246,46.84 82.442623,47.16 L79.9836066,51 L79,51 L79,45 Z" id="Shape" fill="#34454E"></path>
                    <polygon id="Shape" fill="#34454E" points="90.8645833 47.64 90.9375 47.64 92.90625 45 93.78125 45 91.6666667 47.8 94 51 92.9791667 51 90.9375 48.04 90.8645833 48.04 90.8645833 51 90.1354167 51 90.1354167 48.04 90.0625 48.04 88.0208333 51 87 51 89.3333333 47.8 87.21875 45 88.09375 45 90.0625 47.64 90.1354167 47.64 90.1354167 45 90.8645833 45"></polygon>
                    <path d="M95,45 L95.9016393,45 L95.9016393,49.08 L95.9016393,49.8 L95.9836066,49.8 C96.2295082,49.4 96.3114754,49.24 96.557377,48.84 L99.0163934,45 L100,45 L100,50.92 L99.0983607,50.92 L99.0983607,46.92 L99.0983607,46.2 L99.0163934,46.2 C98.7704918,46.68 98.6885246,46.84 98.442623,47.16 L95.9836066,51 L95,51 L95,45 Z" id="Shape" fill="#34454E"></path>
                    <polygon id="Shape" fill="#34454E" points="102.614035 45.8 101 45.8 101 45 105 45 105 45.8 103.385965 45.8 103.385965 51 102.614035 51"></polygon>
                    <polygon id="Shape" fill="#34454E" points="107.614035 45.8 106 45.8 106 45 110 45 110 45.8 108.385965 45.8 108.385965 51 107.614035 51"></polygon>
                    <path d="M115,51 L114.153846,51 L114.153846,48.6315789 L113.230769,48.6315789 L112,51 L111,51 L112.384615,48.4736842 C111.923077,48.3157895 111.615385,48 111.615385,47.9210526 C111.384615,47.6052632 111.230769,47.2105263 111.230769,46.8157895 C111.230769,46.4210526 111.307692,45.8684211 111.769231,45.4736842 C112.230769,45.0789474 112.769231,45 113.230769,45 L114.846154,45 L114.846154,51 L115,51 Z M114.153846,45.8684211 L113.307692,45.8684211 C113.076923,45.8684211 112.769231,45.8684211 112.538462,46.1052632 C112.384615,46.2631579 112.230769,46.5 112.230769,46.8947368 C112.230769,47.2105263 112.384615,47.4473684 112.538462,47.6052632 C112.846154,47.9210526 113.230769,47.9210526 113.615385,47.9210526 L114.230769,47.9210526 L114.230769,45.8684211 L114.153846,45.8684211 Z" id="Shape" fill="#34454E"></path>
                    <path d="M119.367647,50.0769231 C119.735294,49.3846154 119.882353,48.8461538 119.955882,48.4615385 C120.029412,48.0769231 120.102941,47.5384615 120.102941,46.4615385 L120.176471,45 L123.338235,45 L123.338235,50 L124,50 L124,52 L123.264706,52 L123.264706,50.6923077 L119.735294,50.6923077 L119.735294,52 L119,52 L119,50 L119.367647,50 L119.367647,50.0769231 Z M120.838235,45.8461538 L120.764706,47.0769231 C120.764706,47.6153846 120.691176,48.1538462 120.617647,48.7692308 C120.544118,49.3076923 120.397059,49.6923077 120.102941,50.1538462 L122.529412,50.1538462 L122.529412,45.8461538 L120.838235,45.8461538 Z" id="Shape" fill="#34454E"></path>
                    <path d="M125,45 L125.901639,45 L125.901639,49.08 L125.901639,49.8 L125.983607,49.8 C126.229508,49.4 126.311475,49.24 126.557377,48.84 L129.016393,45 L130,45 L130,50.92 L129.098361,50.92 L129.098361,46.92 L129.098361,46.2 L129.016393,46.2 C128.770492,46.68 128.688525,46.84 128.442623,47.16 L125.983607,51 L125,51 L125,45 Z" id="Shape" fill="#34454E"></path>
                    <polygon id="Shape" fill="#34454E" points="132.614035 45.8 131 45.8 131 45 135 45 135 45.8 133.315789 45.8 133.315789 51 132.614035 51"></polygon>
                    <path d="M136,45 L136.901639,45 L136.901639,49.08 L136.901639,49.8 L136.983607,49.8 C137.229508,49.4 137.311475,49.24 137.557377,48.84 L140.016393,45 L141,45 L141,50.92 L140.098361,50.92 L140.098361,46.92 L140.098361,46.2 L140.016393,46.2 C139.770492,46.68 139.688525,46.84 139.442623,47.16 L136.983607,51 L136,51 L136,45 Z" id="Shape" fill="#34454E"></path>
                    <polygon id="Shape" fill="#34454E" points="143 45 143.714286 45 143.714286 47.48 146.285714 47.48 146.285714 45 147 45 147 51 146.285714 51 146.285714 48.28 143.714286 48.28 143.714286 51 143 51"></polygon>
                    <path d="M149,45 L149.901639,45 L149.901639,49.08 L149.901639,49.8 L149.983607,49.8 C150.229508,49.4 150.311475,49.24 150.557377,48.84 L153.016393,45 L154,45 L154,50.92 L153.098361,50.92 L153.098361,46.92 L153.098361,46.2 L153.016393,46.2 C152.770492,46.68 152.688525,46.84 152.442623,47.16 L149.983607,51 L149,51 L149,45 Z" id="Shape" fill="#34454E"></path>
                </g>
            </g>
        </g>
    </g>
</svg>