<?xml version="1.0" encoding="UTF-8"?>
<svg width="1013px" height="1137px" viewBox="0 0 1013 1137" version="1.1" xmlns="http://www.w3.org/2000/svg" xmlns:xlink="http://www.w3.org/1999/xlink">
    <!-- Generator: Sketch 50.2 (55047) - http://www.bohemiancoding.com/sketch -->
    <title>white_logo_big_3</title>
    <desc>Created with Sketch.</desc>
    <defs></defs>
    <g id="Page-1" stroke="none" stroke-width="1" fill="none" fill-rule="evenodd" opacity="0.428850446">
        <g id="Main-page-Admin-главная-активная" transform="translate(0.000000, -2091.000000)" fill="#FFFFFF" fill-rule="nonzero">
            <g id="Bitmap" transform="translate(-71.000000, 1917.000000)">
                <g id="white_logo_big_3" transform="translate(49.000000, 173.000000)">
                    <path d="M1079.89443,900 L815.099353,900 C799.562064,900 787,879.343023 787,853.793605 L787,572.206395 C787,546.656977 799.562064,526 815.099353,526 L1079.89443,526 C1095.43172,526 1107.99378,546.656977 1107.99378,572.206395 L1107.99378,853.793605 C1108.32436,879.343023 1095.43172,900 1079.89443,900 Z" id="Shape"></path>
                    <path d="M739.413043,961 L626.586957,961 C616.478261,961 608,946.904215 608,930.097701 L608,708.902299 C608,692.095785 616.478261,678 626.586957,678 L739.413043,678 C749.521739,678 758,692.095785 758,708.902299 L758,930.639847 C758,947.44636 749.521739,961 739.413043,961 Z" id="Shape"></path>
                    <path d="M1025.28148,1127 L796.718519,1127 C786.538272,1127 778,1120.43654 778,1112.61088 L778,960.389121 C778,952.563459 786.538272,946 796.718519,946 L1025.28148,946 C1035.46173,946 1044,952.563459 1044,960.389121 L1044,1112.61088 C1043.6716,1120.68898 1035.46173,1127 1025.28148,1127 Z" id="Shape"></path>
                    <path d="M728.154472,1127 L643.845528,1127 C633.596206,1127 625,1118.96748 625,1109.39024 L625,1030.60976 C625,1021.03252 633.596206,1013 643.845528,1013 L728.154472,1013 C738.403794,1013 747,1021.03252 747,1030.60976 L747,1109.39024 C747,1119.27642 738.403794,1127 728.154472,1127 Z" id="Shape"></path>
                    <path d="M553.987542,1178 L319.012458,1178 C303.523216,1178 291,1157.32252 291,1131.74775 L291,620.252252 C291,594.677477 303.523216,574 319.012458,574 L553.987542,574 C569.476784,574 582,594.677477 582,620.252252 L582,1131.74775 C582,1157.32252 569.476784,1178 553.987542,1178 Z" id="Shape"></path>
                    <path d="M239.498387,836 L57.5016129,836 C46.3516129,836 37,821.95764 37,805.214826 L37,509.785174 C37,493.04236 46.3516129,479 57.5016129,479 L239.498387,479 C250.648387,479 260,493.04236 260,509.785174 L260,805.214826 C260,822.497731 250.648387,836 239.498387,836 Z" id="Shape"></path>
                    <path d="M1066.27982,485 L880.720177,485 C870.539028,485 862,470.973684 862,454.25 L862,351.75 C862,335.026316 870.539028,321 880.720177,321 L1066.27982,321 C1076.46097,321 1085,335.026316 1085,351.75 L1085,454.25 C1085,470.973684 1076.46097,485 1066.27982,485 Z" id="Shape"></path>
                    <path d="M243.639831,440 L189.360169,440 C175.567797,440 164,425.994048 164,409.294643 L164,289.705357 C164,273.005952 175.567797,259 189.360169,259 L243.639831,259 C257.432203,259 269,273.005952 269,289.705357 L269,409.294643 C269,425.994048 257.432203,440 243.639831,440 Z" id="Shape"></path>
                    <path d="M90.0579268,400 L18.9420732,400 C8.6402439,400 0,385.765363 0,368.793296 L0,333.206704 C0,316.234637 8.6402439,302 18.9420732,302 L90.0579268,302 C100.359756,302 109,316.234637 109,333.206704 L109,368.793296 C108.667683,385.765363 100.359756,400 90.0579268,400 Z" id="Shape"></path>
                    <path d="M551.626866,521 L511.373134,521 C497.029851,521 485,506.96 485,490.22 L485,470.78 C485,454.04 497.029851,440 511.373134,440 L551.626866,440 C565.970149,440 578,454.04 578,470.78 L578,490.22 C578,506.96 566.432836,521 551.626866,521 Z" id="Shape"></path>
                    <path d="M399.666667,517 L319.333333,517 C303.666667,517 291,496.447887 291,471.028169 L291,370.971831 C291,345.552113 303.666667,325 319.333333,325 L399.666667,325 C415.333333,325 428,345.552113 428,370.971831 L428,471.028169 C428,496.447887 415.333333,517 399.666667,517 Z" id="Shape"></path>
                    <path d="M143.56691,193 L37.43309,193 C16.7347932,193 0,172.447887 0,147.028169 L0,46.971831 C0,21.5521127 16.7347932,1 37.43309,1 L143.56691,1 C164.265207,1 181,21.5521127 181,46.971831 L181,147.028169 C181,172.447887 164.265207,193 143.56691,193 Z" id="Shape"></path>
                    <path d="M251.03675,1152 L116.96325,1152 C106.649903,1152 98,1137.91876 98,1121.12959 L98,902.870406 C98,886.081238 106.649903,872 116.96325,872 L251.03675,872 C261.350097,872 270,886.081238 270,902.870406 L270,1121.12959 C270,1138.46035 261.350097,1152 251.03675,1152 Z" id="Shape"></path>
                </g>
            </g>
        </g>
    </g>
</svg>