<?xml version="1.0" encoding="UTF-8"?>
<svg width="362px" height="167px" viewBox="0 0 362 167" version="1.1" xmlns="http://www.w3.org/2000/svg" xmlns:xlink="http://www.w3.org/1999/xlink">
    <!-- Generator: Sketch 50.2 (55047) - http://www.bohemiancoding.com/sketch -->
    <title>Group 15</title>
    <desc>Created with Sketch.</desc>
    <defs></defs>
    <g id="Page-1" stroke="none" stroke-width="1" fill="none" fill-rule="evenodd" opacity="0.100000001">
        <g id="Main-page-Admin-главная-активная" transform="translate(0.000000, -2963.000000)" fill="#FFFFFF" fill-rule="nonzero">
            <g id="Group-15" transform="translate(-111.000000, 2963.000000)">
                <path d="M355.03675,157 L220.96325,157 C210.649903,157 202,150.462282 202,142.667311 L202,41.3326886 C202,33.5377176 210.649903,27 220.96325,27 L355.03675,27 C365.350097,27 374,33.5377176 374,41.3326886 L374,142.667311 C374,150.713733 365.350097,157 355.03675,157 Z" id="Shape-Copy"></path>
                <path d="M467.928433,167 L432.071567,167 C429.313346,167 427,165.239845 427,163.141199 L427,135.858801 C427,133.760155 429.313346,132 432.071567,132 L467.928433,132 C470.686654,132 473,133.760155 473,135.858801 L473,163.141199 C473,165.307544 470.686654,167 467.928433,167 Z" id="Shape-Copy-3"></path>
                <path d="M119.226306,101 L14.7736944,101 C6.73887814,101 0,95.9206963 0,89.8646035 L0,11.1353965 C0,5.07930368 6.73887814,0 14.7736944,0 L119.226306,0 C127.261122,0 134,5.07930368 134,11.1353965 L134,89.8646035 C134,96.1160542 127.261122,101 119.226306,101 Z" id="Shape-Copy-2"></path>
            </g>
        </g>
    </g>
</svg>