<?xml version="1.0" encoding="UTF-8"?>
<svg width="63px" height="63px" viewBox="0 0 63 63" version="1.1" xmlns="http://www.w3.org/2000/svg" xmlns:xlink="http://www.w3.org/1999/xlink">
    <!-- Generator: Sketch 50.2 (55047) - http://www.bohemiancoding.com/sketch -->
    <title>pencil-tip-close-up</title>
    <desc>Created with Sketch.</desc>
    <defs></defs>
    <g id="Page-1" stroke="none" stroke-width="1" fill="none" fill-rule="evenodd">
        <g id="Main-page-SCCCDM-Материалы" transform="translate(-566.000000, -3659.000000)" fill="#FFFFFF" fill-rule="nonzero">
            <g id="Group-6" transform="translate(407.000000, 3554.000000)">
                <g id="Group-14" transform="translate(95.000000, 105.000000)">
                    <g id="pencil-tip-close-up" transform="translate(64.000000, 0.000000)">
                        <polygon id="Shape" points="8.55626236 6.02548289 36.6449202 35.6323688 41.467654 26.8854297 28.8192662 14.2375209 14.5817452 0"></polygon>
                        <polygon id="Shape" points="6.02692015 8.5565019 0.00119771863 14.5819848 14.2372814 28.8178289 26.8866274 41.4664563 35.6335665 36.6434829"></polygon>
                        <polygon id="Shape" points="29.6974335 44.2772624 32.2684563 46.8490038 52.3767148 58.0253954 55.1959049 55.2062053 38.5392319 39.402308"></polygon>
                        <polygon id="Shape" points="46.8502015 32.2694144 44.2784601 29.6959962 39.402308 38.5394715 55.2045285 55.1978213 58.0268327 52.3752776"></polygon>
                        <path d="M59.0681293,55.5025209 L55.4996464,59.0698061 C55.4996464,59.0698061 57.6471559,60.4191559 60.296749,62.0818289 C62.9463422,63.7473764 63.7459392,62.9477795 62.0801521,60.2984259 L59.0681293,55.5025209 Z" id="Shape"></path>
                    </g>
                </g>
            </g>
        </g>
    </g>
</svg>