<?xml version="1.0" encoding="UTF-8"?>
<svg width="17px" height="29px" viewBox="0 0 17 29" version="1.1" xmlns="http://www.w3.org/2000/svg" xmlns:xlink="http://www.w3.org/1999/xlink">
    <!-- Generator: Sketch 50.2 (55047) - http://www.bohemiancoding.com/sketch -->
    <title>Group 7</title>
    <desc>Created with Sketch.</desc>
    <defs></defs>
    <g id="Page-1" stroke="none" stroke-width="1" fill="none" fill-rule="evenodd">
        <g id="Main-page-Admin-громад.орган-(активная)" transform="translate(-617.000000, -1492.000000)" fill="#7B57A0" fill-rule="nonzero">
            <g id="Group-7" transform="translate(617.000000, 1492.000000)">
                <path d="M14.2540072,0 L2.10184245,0 C0.938829978,0 0,0.943039978 0,2.10394745 L0,26.7808619 C0,27.9407168 0.938829978,28.8827043 2.10184245,28.8827043 L14.2540072,28.8827043 C15.4149146,28.8827043 16.3558496,27.9407168 16.3558496,26.7808619 L16.3558496,2.10394745 C16.3558496,0.943039978 15.4149146,0 14.2540072,0 Z M5.17935238,1.27773497 L11.1786022,1.27773497 C11.3301622,1.27773497 11.4533047,1.50402246 11.4533047,1.78398746 C11.4533047,2.06395245 11.3301622,2.29129245 11.1786022,2.29129245 L5.17935238,2.29129245 C5.02673988,2.29129245 4.90570239,2.06395245 4.90570239,1.78398746 C4.90570239,1.50402246 5.02673988,1.27773497 5.17935238,1.27773497 Z M8.17897731,26.8061219 C7.43906983,26.8061219 6.83703984,26.2040919 6.83703984,25.4631319 C6.83703984,24.7221719 7.43906983,24.1222469 8.17897731,24.1222469 C8.91677979,24.1222469 9.51880978,24.7221719 9.51880978,25.4631319 C9.51880978,26.2040919 8.91677979,26.8061219 8.17897731,26.8061219 Z M14.7813097,22.2077495 L1.57559246,22.2077495 L1.57559246,3.55008242 L14.7813097,3.55008242 L14.7813097,22.2077495 Z" id="Shape"></path>
            </g>
        </g>
    </g>
</svg>