<?xml version="1.0" encoding="UTF-8"?>
<svg width="391px" height="240px" viewBox="0 0 391 240" version="1.1" xmlns="http://www.w3.org/2000/svg" xmlns:xlink="http://www.w3.org/1999/xlink">
    <!-- Generator: Sketch 50.2 (55047) - http://www.bohemiancoding.com/sketch -->
    <title>img ?</title>
    <desc>Created with Sketch.</desc>
    <defs></defs>
    <g id="Page-1" stroke="none" stroke-width="1" fill="none" fill-rule="evenodd" opacity="0.100000001">
        <g id="Help-Mentoring" transform="translate(-1090.000000, -593.000000)" fill-rule="nonzero">
            <g id="img-?" transform="translate(1072.000000, 574.000000)">
                <g id="question" transform="translate(296.451425, 146.451425) rotate(22.000000) translate(-296.451425, -146.451425) translate(183.951425, 33.951425)">
                    <path d="M225,112.502721 C225,50.364606 174.631922,0 112.501814,0 C50.3685318,-6.49600888e-15 0,50.364606 0,112.502721 C0,174.631313 50.3685318,225 112.501814,225 C174.631922,225 225,174.631313 225,112.502721 Z" id="Shape" fill="#FFFFFF"></path>
                    <path d="M63,78.6893722 C63,72.3732133 65.0126658,65.973081 69.0388986,59.4903371 C73.0637797,53.0075932 78.9391239,47.6387447 86.6608761,43.3828837 C94.3830788,39.1283844 103.39209,37 113.68791,37 C123.256971,37 131.705932,38.7797815 139.03209,42.3357131 C146.358248,45.8934604 152.016421,50.7307802 156.010663,56.8472187 C160.003104,62.9654728 162,69.6134399 162,76.7942976 C162,82.446386 160.861427,87.4008146 158.58428,91.65486 C156.307134,95.910721 153.60015,99.5842154 150.466033,102.675343 C147.330563,105.767379 141.70438,110.97055 133.586583,118.284403 C131.342328,120.346063 129.542778,122.158526 128.191089,123.72043 C126.837597,125.283243 125.830588,126.712606 125.171414,128.008519 C124.510889,129.30534 123.998598,130.601707 123.636796,131.898529 C123.273191,133.194442 122.728911,135.473071 122.003504,138.730329 C120.749136,145.646103 116.821577,149.103083 110.222628,149.103083 C106.790238,149.103083 103.902128,147.9733 101.5601,145.71192 C99.2167209,143.451902 98.0457071,140.093875 98.0457071,135.638748 C98.0457071,130.053384 98.9026783,125.216064 100.619775,121.127242 C102.335519,117.037512 104.612215,113.447083 107.450763,110.355956 C110.287509,107.26392 114.116395,103.59088 118.934718,99.3350187 C123.157847,95.6120482 126.211314,92.8023447 128.092416,90.9072701 C129.973517,89.0121955 131.557247,86.9024214 132.844506,84.5738626 C134.131314,82.2471195 134.775169,79.7211098 134.775169,76.994018 C134.775169,71.6750996 132.810713,67.1872905 128.884506,63.529683 C124.956946,59.8738912 119.890814,58.0441796 113.68791,58.0441796 C106.426633,58.0441796 101.080701,59.8893241 97.6496621,63.5796131 C94.2172716,67.2699022 91.3138423,72.7054755 88.937572,79.8863331 C86.6933166,87.4008146 82.4359449,91.1564667 76.1663579,91.1564667 C72.4690363,91.1564667 69.3506884,89.8442126 66.8108636,87.216981 C64.2701377,84.5906573 63,81.7482723 63,78.6893722 Z M111.31209,188 C107.285407,188 103.771014,186.68593 100.768461,184.06006 C97.7645557,181.434644 96.2637297,177.76115 96.2637297,173.039577 C96.2637297,168.850441 97.7145432,165.327191 100.619775,162.467557 C103.523204,159.609286 107.087159,158.179015 111.31164,158.179015 C115.469887,158.179015 118.967159,159.609286 121.805707,162.467557 C124.642453,165.327191 126.062628,168.850441 126.062628,173.039577 C126.062628,177.694425 124.577572,181.351579 121.607459,184.010584 C118.637347,186.66959 115.205857,188 111.31209,188 Z" id="Shape" fill="#3DA3DB"></path>
                </g>
                <g id="question" transform="translate(78.758322, 79.758322) rotate(22.000000) translate(-78.758322, -79.758322) translate(18.258322, 19.258322)">
                    <path d="M120.658947,60.3309327 C120.658947,27.0086237 93.6484614,0 60.3304463,0 C27.010729,-3.48356263e-15 0,27.0086237 0,60.3309327 C0,93.6481348 27.010729,120.658947 60.3304463,120.658947 C93.6484614,120.658947 120.658947,93.6481348 120.658947,60.3309327 Z" id="Shape" fill="#FFFFFF"></path>
                    <path d="M33.7845052,42.1981191 C33.7845052,38.8110032 34.8638214,35.3788556 37.022937,31.9024064 C39.1813277,28.4259573 42.3320515,25.5468479 46.4729337,23.2645914 C50.6140574,20.9830652 55.4452477,19.8416935 60.9665045,19.8416935 C66.0980284,19.8416935 70.6288851,20.7961227 74.557625,22.7030337 C78.4863649,24.6109183 81.5206278,27.204989 83.6625884,30.4850025 C85.8035825,33.7659896 86.874442,37.3310417 86.874442,41.1818626 C86.874442,44.2128628 86.2638684,46.8697346 85.0427214,49.1510174 C83.8215743,51.4332739 82.3699218,53.4032292 80.6892137,55.0608835 C79.0077806,56.7190247 75.9906727,59.5092877 71.6374066,63.4314292 C70.4338978,64.5370189 69.4688678,65.5089739 68.7440081,66.3465639 C68.0181819,67.1846408 67.4781613,67.9511538 67.1246714,68.6461029 C66.7704566,69.3415387 66.4957347,70.0367312 66.3017139,70.7321671 C66.1067267,71.4271161 65.8148498,72.649058 65.4258417,74.3958021 C64.7531719,78.1044689 62.646971,79.9583155 59.1082057,79.9583155 C57.2675452,79.9583155 55.7187615,79.3524562 54.4628211,78.139764 C53.2061559,76.9278021 52.5781858,75.12702 52.5781858,72.7379044 C52.5781858,69.7426862 53.0377469,67.1486155 53.9585604,64.9559356 C54.878649,62.7627689 56.0995545,60.8373584 57.62176,59.1797041 C59.142999,57.521563 61.1962851,55.551851 63.7801685,53.2695946 C66.044872,51.273107 67.6823302,49.7663698 68.6910933,48.7501133 C69.6998565,47.7338568 70.5491505,46.6024652 71.2394586,45.3537476 C71.9295251,44.1060038 72.2748,42.7514008 72.2748,41.2889651 C72.2748,38.4366314 71.2213371,36.0299899 69.1158611,34.0685541 C67.0096603,32.1080919 64.2928859,31.1268871 60.9665045,31.1268871 C57.0725579,31.1268871 54.2057375,32.116368 52.3658019,34.0953297 C50.5251413,36.0742914 48.9681426,38.9891828 47.6938391,42.8400038 C46.4903303,46.8697346 44.2072637,48.883748 40.8451225,48.883748 C38.8623894,48.883748 37.190138,48.180036 35.8281265,46.7711516 C34.4656318,45.362754 33.7845052,43.838491 33.7845052,42.1981191 Z M59.6924427,100.817254 C57.5330855,100.817254 55.6484501,100.112568 54.0382949,98.7044138 C52.4274149,97.296503 51.622579,95.3265477 51.622579,92.7945477 C51.622579,90.5480731 52.4005951,88.658688 53.9585604,87.1251753 C55.5155591,85.5923927 57.4267727,84.8253929 59.6922011,84.8253929 C61.9221113,84.8253929 63.7975651,85.5923927 65.3197706,87.1251753 C66.8410096,88.658688 67.6025956,90.5480731 67.6025956,92.7945477 C67.6025956,95.2907657 66.8062163,97.2519581 65.2134578,98.6778816 C63.6206993,100.103805 61.780522,100.817254 59.6924427,100.817254 Z" id="Shape" fill="#3DA3DB"></path>
                </g>
                <g id="question" transform="translate(130.420723, 210.420723) rotate(22.000000) translate(-130.420723, -210.420723) translate(90.920723, 170.920723)">
                    <path d="M78.2000847,39.100988 C78.2000847,17.5045176 60.6943603,0 39.1006728,0 C17.505882,-2.25772642e-15 0,17.5045176 0,39.100988 C0,60.6941486 17.505882,78.2000847 39.1006728,78.2000847 C60.6943603,78.2000847 78.2000847,60.6941486 78.2000847,39.100988 Z" id="Shape" fill="#FFFFFF"></path>
                    <path d="M21.8960237,27.3489581 C21.8960237,25.1537396 22.5955377,22.9293356 23.9948787,20.6762196 C25.39375,18.4231035 27.4357608,16.5571283 30.1195015,15.0779786 C32.8033989,13.5993021 35.9345342,12.8595695 39.5129075,12.8595695 C42.8386915,12.8595695 45.7751781,13.4781431 48.3214276,14.7140282 C50.8676772,15.9505444 52.8342087,17.6317836 54.2224315,19.7575881 C55.6100279,21.8840236 56.3040609,24.194564 56.3040609,26.6903136 C56.3040609,28.6547305 55.9083431,30.3766716 55.1169073,31.8551903 C54.3254716,33.33434 53.3846433,34.6110848 52.2953621,35.6854245 C51.2056112,36.7600798 49.250198,38.5684729 46.4288094,41.110446 C45.6488052,41.826988 45.0233611,42.4569203 44.5535733,42.9997695 C44.0831592,43.5429342 43.7331673,44.0397178 43.5040675,44.4901201 C43.2744979,44.940838 43.0964484,45.3913981 42.9707018,45.842116 C42.8443289,46.2925183 42.6551611,47.0844693 42.4030416,48.2165489 C41.9670786,50.6201672 40.602032,51.8216608 38.3085283,51.8216608 C37.1155806,51.8216608 36.1118008,51.4289983 35.2978152,50.6430423 C34.4833599,49.8575595 34.0763671,48.6904573 34.0763671,47.1420513 C34.0763671,45.2008251 34.3742125,43.5195859 34.9709996,42.0984915 C35.5673168,40.6770816 36.358596,39.4292068 37.3451502,38.354867 C38.3310781,37.2802117 39.6618302,36.0036247 41.3364669,34.524475 C42.8042404,33.2305345 43.8654909,32.2540054 44.5192788,31.595361 C45.1730668,30.9367165 45.7235014,30.203452 46.1708959,29.3941476 C46.6181339,28.5854742 46.8419094,27.7075446 46.8419094,26.7597277 C46.8419094,24.911106 46.1591512,23.3513414 44.7945744,22.0801182 C43.4295279,20.809526 41.6687634,20.1735989 39.5129075,20.1735989 C36.9892077,20.1735989 35.1311972,20.8148898 33.9387193,22.0974717 C32.7457716,23.3800535 31.7366675,25.2692193 30.9107807,27.7649689 C30.1307764,30.3766716 28.6511017,31.6819707 26.4720695,31.6819707 C25.1870434,31.6819707 24.1032431,31.225889 23.2205119,30.3127791 C22.3374676,29.3999847 21.8960237,28.4120969 21.8960237,27.3489581 Z M38.6871772,65.3405152 C37.2876795,65.3405152 36.0662314,64.8838025 35.0226762,63.9711658 C33.9786513,63.0586869 33.4570303,61.7819422 33.4570303,60.1409315 C33.4570303,58.6849724 33.9612691,57.4604459 34.9709996,56.4665633 C35.9801036,55.473154 37.2187773,54.9760549 38.6870206,54.9760549 C40.1322443,54.9760549 41.3477418,55.473154 42.334296,56.4665633 C43.3202239,57.4604459 43.8138142,58.6849724 43.8138142,60.1409315 C43.8138142,61.7587516 43.2976741,63.029817 42.2653938,63.9539701 C41.2331136,64.8781231 40.0404791,65.3405152 38.6871772,65.3405152 Z" id="Shape" fill="#3DA3DB"></path>
                </g>
            </g>
        </g>
    </g>
</svg>