<?xml version="1.0" encoding="UTF-8"?>
<svg width="25px" height="25px" viewBox="0 0 25 25" version="1.1" xmlns="http://www.w3.org/2000/svg" xmlns:xlink="http://www.w3.org/1999/xlink">
    <!-- Generator: Sketch 50.2 (55047) - http://www.bohemiancoding.com/sketch -->
    <title>search</title>
    <desc>Created with Sketch.</desc>
    <defs></defs>
    <g id="Page-1" stroke="none" stroke-width="1" fill="none" fill-rule="evenodd">
        <g id="Main-page-Admin-наставники-(карточка-наставника)" transform="translate(-443.000000, -587.000000)" fill-rule="nonzero">
            <g id="Group-3" transform="translate(408.000000, 572.000000)">
                <g id="search" transform="translate(35.000000, 15.000000)">
                    <path d="M24.4469059,21.7763701 L17.9245631,15.2537238 C20.9398715,10.7635755 19.7442301,4.67930084 15.2540041,1.66404457 C10.763778,-1.3512117 4.67939814,-0.15553893 1.6640897,4.33460942 C-1.35121874,8.82475777 -0.155577332,14.9090324 4.33464871,17.9242887 C7.63672789,20.1416491 11.9519249,20.1416491 15.2540041,17.9242887 L21.7763469,24.446935 C22.5137797,25.184355 23.7094731,25.184355 24.4469059,24.446935 C25.1843387,23.709515 25.1843907,22.5138422 24.4469059,21.7763701 Z M9.80296594,18.7544522 C4.86129718,18.7489354 0.856655717,14.7443633 0.851138893,9.80278 C0.851138893,4.85890678 4.85900718,0.851107832 9.80296594,0.851107832 C14.7469247,0.851107832 18.754793,4.85890678 18.754793,9.80278 C18.754793,14.7466532 14.7469247,18.7544522 9.80296594,18.7544522 Z M23.8585835,23.8577901 C23.6605503,24.0559759 23.3917874,24.1672473 23.1116264,24.1671432 C22.8315175,24.1679759 22.5627024,24.0567566 22.3650857,23.8582064 L16.0126194,17.5053816 L17.5057008,16.012326 L23.8581671,22.3650987 C24.2704716,22.7771879 24.2706798,23.4454927 23.8585835,23.8577901 Z" id="Shape" fill="#34454E"></path>
                    <path d="M10.0214821,2 L10,2.69629802 C12.0975985,2.74294998 14.0629602,3.58681966 15.3652638,5 L16,4.56690263 C14.5485881,2.99248578 12.3587786,2.05226587 10.0214821,2 Z" id="Shape" fill="#000000"></path>
                    <path d="M16.6072946,6 L16,6.34881356 C16.1319494,6.55868644 16.2502213,6.77614407 16.3541076,7 L17,6.72610169 C16.884738,6.47661017 16.7536296,6.23411017 16.6072946,6 Z" id="Shape" fill="#000000"></path>
                </g>
            </g>
        </g>
    </g>
</svg>