<?xml version="1.0" encoding="UTF-8"?>
<svg width="62px" height="63px" viewBox="0 0 62 63" version="1.1" xmlns="http://www.w3.org/2000/svg" xmlns:xlink="http://www.w3.org/1999/xlink">
    <!-- Generator: Sketch 50.2 (55047) - http://www.bohemiancoding.com/sketch -->
    <title>icon</title>
    <desc>Created with Sketch.</desc>
    <defs></defs>
    <g id="Page-1" stroke="none" stroke-width="1" fill="none" fill-rule="evenodd">
        <g id="Main-page-SCCCDM-Материалы" transform="translate(-567.000000, -3165.000000)" fill="#FFFFFF" fill-rule="nonzero">
            <g id="Group-6" transform="translate(407.000000, 3014.000000)">
                <g id="Group-14" transform="translate(95.000000, 151.000000)">
                    <g id="icon" transform="translate(95.894231, 31.500000) scale(-1, 1) translate(-95.894231, -31.500000) translate(65.000000, 0.000000)">
                        <path d="M38.6614038,0 C25.9681154,0 15.6421731,10.3259423 15.6421731,23.0192308 C15.6421731,28.1779615 17.3686154,32.9296154 20.2460192,36.7726154 C19.6572115,37.2015 19.0659808,37.6388654 18.4844423,38.0931923 C17.2729038,39.0200192 16.0431923,39.9601731 14.8134808,40.9003269 C13.59225,41.8501731 12.2813654,42.7103654 10.9825962,43.5475385 C9.68625,44.3883462 8.43715385,45.2424808 7.40128846,46.242 C6.36542308,47.2390962 5.49917308,48.3415962 4.77103846,49.4792308 C4.02351923,50.5962692 3.38867308,51.7254231 2.86165385,52.8267115 C2.32251923,53.9170962 1.90453846,54.9905192 1.56894231,55.9791346 C1.22123077,56.9544231 1.00436538,57.8909423 0.829903846,58.6663269 C0.656653846,59.4441346 0.559730769,60.0923077 0.508846154,60.5514808 C0.454326923,61.0058077 0.444634615,61.2662885 0.444634615,61.2662885 L1.30119231,62.1276923 C1.30119231,62.1276923 1.56288462,62.118 2.01721154,62.0622692 C2.47517308,62.0113846 3.12334615,61.9144615 3.90115385,61.7412115 C4.67653846,61.5655385 5.61305769,61.3498846 6.58834615,61.0021731 C7.57575,60.6677885 8.64917308,60.2485962 9.73955769,59.7094615 C10.8408462,59.1824423 11.9687885,58.5475962 13.0870385,57.8012885 C14.2246731,57.0731538 15.32475,56.2069038 16.3242692,55.1710385 C17.3225769,54.1351731 18.1767115,52.8848654 19.0175192,51.5897308 C19.8559038,50.2909615 20.7148846,48.9800769 21.6647308,47.7588462 C22.6048846,46.5267115 23.54625,45.2982115 24.4718654,44.0878846 C24.9685962,43.45425 25.4435192,42.8121346 25.90875,42.1700192 C29.56275,44.6112692 33.9460962,46.0408846 38.6614038,46.0408846 C51.3559038,46.0408846 61.6806346,35.7161538 61.6806346,23.0216538 C61.6806346,10.3247308 51.3546923,0 38.6614038,0 Z M38.6614038,37.5576923 C35.7743077,37.5576923 33.0883269,36.7011346 30.82275,35.2448654 C29.4100962,34.3362115 28.1706923,33.1925192 27.1481538,31.8634615 C25.2581538,29.4100962 24.1217308,26.3485385 24.1217308,23.0192308 C24.1217308,15.0024808 30.6434423,8.48076923 38.6601923,8.48076923 C46.6769423,8.48076923 53.1986538,15.0024808 53.1986538,23.0192308 C53.1986538,31.0359808 46.6793654,37.5576923 38.6614038,37.5576923 Z M43.9412885,23.0192308 C43.9412885,25.9354038 41.5775769,28.3003269 38.6614038,28.3003269 C37.6643077,28.3003269 36.7411154,28.0071346 35.9451346,27.5273654 C35.5635,27.2971731 35.2060962,27.0318462 34.8959423,26.7144231 C33.9606346,25.7621538 33.3815192,24.45975 33.3815192,23.0192308 C33.3815192,20.1030577 35.7452308,17.7381346 38.6614038,17.7381346 C41.5775769,17.7381346 43.9412885,20.1030577 43.9412885,23.0192308 Z" id="Shape"></path>
                    </g>
                </g>
            </g>
        </g>
    </g>
</svg>