<?xml version="1.0" encoding="UTF-8"?>
<svg width="66px" height="63px" viewBox="0 0 66 63" version="1.1" xmlns="http://www.w3.org/2000/svg" xmlns:xlink="http://www.w3.org/1999/xlink">
    <!-- Generator: Sketch 50.2 (55047) - http://www.bohemiancoding.com/sketch -->
    <title>wiping-gloves-black-pair</title>
    <desc>Created with Sketch.</desc>
    <defs></defs>
    <g id="Page-1" stroke="none" stroke-width="1" fill="none" fill-rule="evenodd">
        <g id="Main-page-SCCCDM-Материалы" transform="translate(-564.000000, -4153.000000)" fill="#FFFFFF" fill-rule="nonzero">
            <g id="Group-6" transform="translate(407.000000, 4002.000000)">
                <g id="Group-14" transform="translate(82.000000, 151.000000)">
                    <g id="wiping-gloves-black-pair" transform="translate(107.856250, 31.500000) scale(-1, 1) translate(-107.856250, -31.500000) translate(75.000000, 0.000000)">
                        <path d="M63.301525,30.581075 C61.751375,30.2668625 60.1957125,31.298225 59.8815875,32.8482875 L58.3597875,40.3563125 C58.3247875,40.397175 58.2899625,40.4380375 58.25505,40.4788125 C58.0841625,40.6781375 57.8808125,40.810525 57.615425,40.6776125 C57.342075,40.5409375 57.2606125,40.303725 57.3285125,40.0106 C57.34225,39.951275 57.3526625,39.8911625 57.3647375,39.8314 C58.20115,35.68985 62.206025,15.920625 63.377475,10.1786125 C63.5254375,9.4535 63.4468625,8.7770375 63.087675,8.1235875 C62.510525,7.0737625 61.605075,6.557425 60.438175,6.5676625 C58.99985,6.5802625 57.917475,7.5481875 57.6195375,9.005325 C57.0052,12.009725 54.671925,23.493575 54.11385,26.23005 C54.030725,26.6373625 53.8040125,26.8209375 53.47405,26.7582 C53.1479375,26.69625 53.0051375,26.431125 53.0831875,26.0253 C53.1369125,25.7462625 56.8423625,7.45535 57.649025,3.4853875 C57.9660375,1.9254375 56.9288125,0.3779125 55.3625625,0.0651 C53.7602625,-0.2548875 52.21685,0.7483875 51.897125,2.3200625 C51.437575,4.57905 47.5572125,23.71915 47.4303375,24.3562375 C47.3785375,24.6164625 47.255425,24.814475 46.978925,24.8675 C46.5786125,24.9442375 46.292575,24.6099 46.384275,24.1462375 C46.6895625,22.602475 49.476175,8.922375 50.0044125,6.2321 C50.265775,4.9013125 49.5663,3.7587375 48.4990625,3.17135 C46.7663,2.2176 44.6326125,3.2360125 44.2365875,5.177725 C44.1035875,5.8295125 43.895425,6.8544 43.641675,8.1048625 C45.1159625,8.666175 46.12475,9.8245 46.505375,11.4195375 C46.7697125,12.5272 46.632775,13.622875 46.0984125,14.676025 C44.59455,17.6393 40.8394875,25.059825 37.5902625,31.4839 C37.649325,31.481625 37.708475,31.480575 37.7677125,31.480575 C38.4878375,31.480575 39.2063,31.6514625 39.845225,31.9746 C40.9448375,32.530925 41.764975,33.49115 42.1547,34.67835 C42.54425,35.86555 42.4524625,37.1251125 41.8963125,38.2244625 L41.732425,38.5483875 L41.69935,38.61375 L40.742975,40.504275 L39.7865125,42.3947125 C39.5145625,42.9324875 39.2336875,43.4732375 38.9619125,43.9961375 C38.4306125,45.0190125 37.881025,46.0767125 37.3958375,47.11875 C37.1532875,47.6394625 36.904175,48.10855 36.6342375,48.5526125 C35.306075,50.73775 33.4893125,52.210375 30.9169875,53.1871375 C30.690975,53.272975 30.4637375,53.3535625 30.2360625,53.431525 C30.512475,54.3801125 30.7929125,55.0893875 30.9826125,55.52295 C31.07895,55.7431 31.1054625,55.9871375 31.057775,56.222775 L30.599975,58.4817625 C30.472225,59.1119375 30.8795375,59.726625 31.5098,59.854375 C31.5098,59.854375 37.04575,60.1699 38.87065,60.5397625 C40.8897125,60.949 46.885825,62.97095 46.885825,62.97095 C47.5160875,63.0987 48.1306,62.6913 48.25835,62.0610375 L49.0189,58.308775 C49.0308875,58.2495375 49.0483,58.1917875 49.0686875,58.135 C49.096775,58.0568625 49.1222375,57.9765375 49.144025,57.8932375 C49.295575,57.313375 49.5901875,56.851025 50.0086125,56.45675 C52.78175,53.844175 56.5516,52.5258125 59.6323,50.2739125 C61.5783,48.851425 62.675725,47.292175 63.266,45.22245 C63.391825,44.7813625 63.4944625,44.3170875 63.5775875,43.826125 C63.874475,42.070525 64.28695,40.3263875 64.6405375,38.5814625 C65.3505125,35.078925 64.7724,37.931075 65.4822875,34.4285375 C65.5111625,34.2860875 65.5400375,34.143725 65.5689125,34.001275 C65.88295,32.45095 64.851675,30.8952 63.301525,30.581075 Z" id="Shape"></path>
                        <path d="M15.1633125,60.5397625 C15.588475,60.5397625 15.9982375,60.30605 16.2033375,59.9006625 L17.93155,56.4843125 C17.95885,56.4304125 17.9909625,56.3794 18.0257,56.329875 C18.0735625,56.2620625 18.119325,56.191275 18.162375,56.116725 C18.4622375,55.5977625 18.86885,55.2300875 19.376875,54.9609375 C22.592675,53.2569625 26.3720625,52.932075 29.813525,51.725975 C29.974875,51.66945 30.1357,51.611525 30.295475,51.550975 C32.54895,50.6954 34.0206125,49.4827375 35.138425,47.643575 C35.376775,47.2516625 35.5989375,46.8313125 35.8091125,46.3798125 C36.5609125,44.7657875 37.421125,43.1934125 38.224725,41.604675 C39.83805,38.415825 38.5242375,41.0125625 40.137475,37.823625 C40.2031,37.6940375 40.268725,37.564275 40.3342625,37.4346875 C41.0480875,36.0234 40.4663,34.24995 39.054925,33.5358625 C38.644725,33.3284 38.203725,33.2303125 37.7673625,33.2303125 C36.70205,33.2303125 35.66255,33.8141125 35.1561,34.8152 L31.6981875,41.65105 C31.65365,41.68115 31.6091125,41.7113375 31.5646625,41.7414375 C31.4412875,41.8247375 31.3135375,41.8845 31.185875,41.8845 C31.0884,41.8845 30.9908375,41.849675 30.8952,41.7636625 C30.6677875,41.55935 30.6523,41.3090125 30.795275,41.0445 C30.8242375,40.9908625 30.850225,40.9357375 30.8777,40.8813125 C32.0383,38.5828625 35.872375,31.000375 39.2905625,24.2449375 C39.9102375,23.0202875 40.5162625,21.8229375 41.0900875,20.689025 C42.5453,17.8140375 43.7943625,15.34785 44.5372375,13.883975 C44.8721,13.22405 44.9757875,12.5509125 44.802625,11.825625 C44.5799375,10.89235 44.06255,10.2339125 43.286075,9.8545125 C43.0931375,9.760275 42.8848875,9.6824875 42.6605375,9.6229 C42.3997875,9.5536875 42.1420125,9.5200875 41.89115,9.5200875 C41.6955,9.5200875 41.504225,9.541175 41.3184625,9.5809 C40.47225,9.761675 39.7453,10.342675 39.2965125,11.2259875 C38.3786375,13.0326875 35.7553875,18.2105875 33.716725,22.2340125 C32.6704,24.298925 31.7779875,26.0600375 31.3494125,26.9047625 C31.2141375,27.1712875 31.038,27.3065625 30.837625,27.3065625 C30.759225,27.3065625 30.6772375,27.2859125 30.59245,27.2442625 C30.2945125,27.0981375 30.2269625,26.804575 30.409925,26.433925 C30.4686375,26.3150125 32.334575,22.623825 34.494075,18.353475 C36.2445125,14.8920625 38.1877125,11.050375 39.5178,8.4216125 C40.0626625,7.34475 40.5048,6.471325 40.7883875,5.9112375 C41.507725,4.4912 40.9178875,2.72405 39.4905875,2.007075 C39.0550125,1.788325 38.5931875,1.6844625 38.1402875,1.6844625 C37.075325,1.6844625 36.059975,2.258725 35.55125,3.262525 C34.5092125,5.318775 25.692975,22.7450125 25.4016875,23.3256625 C25.290125,23.548 25.1328,23.7010375 24.8822875,23.7010375 C24.8656625,23.7010375 24.848425,23.7003375 24.8308375,23.6989375 C24.4244875,23.666825 24.2374125,23.268525 24.448725,22.8458125 C25.1524,21.4382 31.4664,8.9866 32.6890375,6.5326625 C33.2938375,5.318775 32.9224,4.03165 32.04915,3.1822875 C31.4759375,2.6247375 30.753975,2.3606625 30.0381375,2.3606625 C28.9832375,2.3606625 27.9414625,2.9339625 27.407275,3.9867625 C25.8591375,7.03815 19.7841875,19.0544375 18.2882,22.0077375 C18.157825,22.265075 17.9732,22.39895 17.7709875,22.39895 C17.6906625,22.39895 17.6075375,22.3778625 17.5238875,22.3349875 C17.233125,22.1858875 17.159625,21.9051 17.3371625,21.5495875 C17.985625,20.251175 21.9933,12.381075 23.3065875,9.7236125 C24.0331,8.253525 23.394875,6.5435125 21.9263625,5.826625 C21.5138,5.6252 21.0772625,5.5293875 20.6472,5.5293875 C19.589325,5.5293875 18.570475,6.1091625 18.04215,7.1234625 C17.5919625,7.9877875 4.06175,34.8929 3.868725,35.35 C0.5961375,41.819575 1.03285,47.3188625 1.2791625,49.0160125 C1.313725,49.2538375 1.2746125,49.4962125 1.1661125,49.710675 L0.12565,51.76745 C-0.164675,52.3413625 0.0651875,53.0418875 0.6391,53.3322125 C0.6391,53.3322125 6.373675,54.94685 8.0707375,55.8053125 C9.8735,56.717325 14.6384,60.4141125 14.6384,60.4141125 C14.8071875,60.4993375 14.9865625,60.5397625 15.1633125,60.5397625 Z" id="Shape"></path>
                    </g>
                </g>
            </g>
        </g>
    </g>
</svg>